<svg xmlns="http://www.w3.org/2000/svg" width="113" height="113" viewBox="0 0 113 113"><defs><style>.cls-1{fill:#cbe2e7;}</style></defs><g id="Layer_2" data-name="Layer 2"><path class="cls-1" d="M84.5781,55.2209a19.0174,19.0174,0,0,0-3.6392-5.1458A33.0162,33.0162,0,0,0,70.9023,43.282a58.6026,58.6026,0,0,0-22.1316-4.831L54.9,23.48,25.0027,40.9438,54.9,58.4075,48.79,43.4827a54.0113,54.0113,0,0,1,20.4129,3.7018,29.0588,29.0588,0,0,1,9.0129,5.613,12.6927,12.6927,0,0,1,4.335,8.7343,12.8408,12.8408,0,0,1-4.0479,9.0211,29.5382,29.5382,0,0,1-8.9758,6.07A55.696,55.696,0,0,1,47.75,81.2089v1.8218a57.8868,57.8868,0,0,0,22.8282-3.9932,32.3178,32.3178,0,0,0,10.0734-6.3359,18.6426,18.6426,0,0,0,3.7442-4.9484,13.7693,13.7693,0,0,0,.1821-12.5323Z"/></g></svg>