<?xml version="1.0" encoding="utf-8"?>
<!-- Generator: Adobe Illustrator 27.1.1, SVG Export Plug-In . SVG Version: 6.00 Build 0)  -->
<svg version="1.1" xmlns="http://www.w3.org/2000/svg" xmlns:xlink="http://www.w3.org/1999/xlink" x="0px" y="0px"
	 viewBox="0 0 113 113" style="enable-background:new 0 0 113 113;" xml:space="preserve">
<style type="text/css">
	.st0{fill:#CBE2E7;}
</style>
<g id="Layer_1">
</g>
<g id="Layer_3">
	<path class="st0" d="M30.2,24.9C21.6,33,21.2,46.5,29.3,55c8.1,8.5,21.5,8.9,30.1,0.9c8.5-8.1,8.9-21.5,0.9-30.1
		C52.2,17.2,38.7,16.9,30.2,24.9z M54.5,50.7c-5.7,5.4-14.6,5.1-20-0.6s-5.1-14.6,0.6-20s14.6-5.1,20,0.6S60.2,45.3,54.5,50.7z"/>
	<rect x="70.7" y="57.2" transform="matrix(0.7271 -0.6866 0.6866 0.7271 -29.007 72.4675)" class="st0" width="12" height="31.1"/>
	
		<rect x="61.4" y="50.3" transform="matrix(0.7271 -0.6866 0.6866 0.7271 -23.707 61.0811)" class="st0" width="7.1" height="20.2"/>
</g>
</svg>
