<svg id="Layer_1" data-name="Layer 1" xmlns="http://www.w3.org/2000/svg" width="256.3193" height="130.2383" viewBox="0 0 256.3193 130.2383"><defs><style>.cls-1{fill:#fff;}</style></defs><path class="cls-1" d="M4.2231,26.4268a8.6909,8.6909,0,0,1-3.1943-3.6954A11.3915,11.3915,0,0,1,0,17.9531,10.8837,10.8837,0,0,1,1.0693,13.27,9.3358,9.3358,0,0,1,4.2642,9.52,8.8191,8.8191,0,0,1,9.4214,8.0439,9.2217,9.2217,0,0,1,14.7144,9.52a9.3084,9.3084,0,0,1,3.2627,3.75,10.7814,10.7814,0,0,1,1.083,4.6836,10.9234,10.9234,0,0,1-1.07,4.67,9.3287,9.3287,0,0,1-3.1943,3.7637,8.824,8.824,0,0,1-5.1577,1.4756A9.5989,9.5989,0,0,1,4.2231,26.4268Zm9.0835-.88a7.5264,7.5264,0,0,0,2.2745-3.1,10.4606,10.4606,0,0,0,.7714-3.98,12.1634,12.1634,0,0,0-.8393-4.4531,8.6956,8.6956,0,0,0-2.4365-3.52A5.5709,5.5709,0,0,0,9.34,9.127a5.6543,5.6543,0,0,0-3.6279,1.2041A7.448,7.448,0,0,0,3.4248,13.459a10.6539,10.6539,0,0,0-.772,4.0068,12.45,12.45,0,0,0,.7852,4.291A8.6571,8.6571,0,0,0,5.8208,25.33,5.6168,5.6168,0,0,0,9.6924,26.752,5.595,5.595,0,0,0,13.3066,25.5469Z"/><path class="cls-1" d="M28.0615,26.8467a5.6177,5.6177,0,0,1-2.3823-3.1133,17.5231,17.5231,0,0,1-.7178-5.5371V12.7q0-1.7315.1084-3.1406l-1.9492.082V8.4766h6.0645V9.37q-1.1917,0-1.5162.6231a3.2424,3.2424,0,0,0-.3247,1.5156V18.332a17.3448,17.3448,0,0,0,.4195,4.0742,5.3739,5.3739,0,0,0,1.6513,2.8165,5.1482,5.1482,0,0,0,3.5332,1.0957,4.7745,4.7745,0,0,0,4.1831-1.9356,9.2546,9.2546,0,0,0,1.4214-5.2656l.0811-7.6084q0-1.1367.0815-1.9492L36.793,9.668V8.4766h5.0356V9.37a1.9991,1.9991,0,0,0-1.3808.4336,1.5315,1.5315,0,0,0-.46.9609q-.0549.5553-.0542,1.9356l-.0542,6.2812a11.1379,11.1379,0,0,1-1.7466,6.4034q-1.719,2.477-5.5366,2.4775A8.681,8.681,0,0,1,28.0615,26.8467Z"/><path class="cls-1" d="M46.269,26.5352a1.95,1.95,0,0,0,1.3536-.4327,1.5423,1.5423,0,0,0,.46-.9619q.0536-.5536.0537-1.9355V11.5088q0-1.1367.0816-1.9492L46.269,9.668V8.4766q2.8155-.0528,4.2505-.0537,1.2993,0,1.9493.0273,3.8173.0541,5.5908,1.2861a4.0673,4.0673,0,0,1,1.7734,3.56,5.2589,5.2589,0,0,1-1.11,3.3574A6.3508,6.3508,0,0,1,54.77,18.7109a4.644,4.644,0,0,1,.8394.8389q.3786.4878,1.0288,1.5166l1.8408,2.8965q.5955.9492.9883,1.4492a3.139,3.139,0,0,0,.9477.8115,2.7541,2.7541,0,0,0,1.3672.3116v.8935H58.3711a8.1447,8.1447,0,0,1-1.2319-1.2861q-.5018-.6636-1.1778-1.7188l-1.8139-2.8974-.3521-.5684q-.4337-.7309-.7583-1.1914a5.2223,5.2223,0,0,0-.7036-.8125,7.4193,7.4193,0,0,1-.7583.0273q-.731,0-1.083-.0273V24.207a20.4166,20.4166,0,0,1-.0811,2.1387l1.9493-.1084v1.1914H46.269ZM57.2065,13.5938a3.8569,3.8569,0,0,0-1.1909-3.086A5.4915,5.4915,0,0,0,52.36,9.4785a1.96,1.96,0,0,0-1.3536.3789,1.4151,1.4151,0,0,0-.46.9209q-.0541.5419-.0542,1.9219v5.1982q.8123.0557,1.1914.0547Q57.2068,17.9531,57.2065,13.5938Z"/><path class="cls-1" d="M90.6626,3.4521a4.8805,4.8805,0,0,1,1.9619,4.6856,5.3459,5.3459,0,0,1-1.7075,3.5244A8.1366,8.1366,0,0,1,86.4487,13.77v.0723a8.564,8.564,0,0,1,5.649,1.6348,5.45,5.45,0,0,1,1.9438,4.3955,7.0747,7.0747,0,0,1-1.1445,4.0332,7.3422,7.3422,0,0,1-3.1426,2.6152,10.8606,10.8606,0,0,1-4.541.9082H74.7144l.0727-1.1992a2.6874,2.6874,0,0,0,1.8345-.5811,2.3169,2.3169,0,0,0,.69-1.3261q.1268-.7807.2359-2.7422l.7993-15.2588a17.9409,17.9409,0,0,1,.2544-2.8692L75.95,3.5967l.1089-1.5977q2.5788,0,3.8506-.0371L84.16,1.9258Q88.4832,1.9258,90.6626,3.4521Zm-9.7358,11.48-.4361,8.1739a26.3879,26.3879,0,0,1-.2544,2.834q.69.0732,2.6158.0722h1.2353a7.0521,7.0521,0,0,0,4.7769-1.5254A5.5,5.5,0,0,0,90.6265,20.09a4.7138,4.7138,0,0,0-1.6529-4.0136,6.9352,6.9352,0,0,0-4.3051-1.2539Q82.67,14.8223,80.9268,14.9316Zm1.58-11.3711a1.761,1.761,0,0,0-.8354,1.0538,8.7937,8.7937,0,0,0-.3086,2.1435l-.3638,6.7568q1.0541,0,2.6524-.0722a5.7183,5.7183,0,0,0,4.3774-1.7617A6.01,6.01,0,0,0,89.4277,7.666,3.8014,3.8014,0,0,0,87.92,4.2148a6.5475,6.5475,0,0,0-3.6509-.9814A3.7726,3.7726,0,0,0,82.5068,3.5605Z"/><path class="cls-1" d="M111.6426,9.4277a1.8655,1.8655,0,0,1,.708,1.544,1.7689,1.7689,0,0,1-.4722,1.2168,1.5388,1.5388,0,0,1-1.1987.5273,1.6845,1.6845,0,0,1-1.126-.3994,1.6135,1.6135,0,0,1-.5449-1.1269,1.7719,1.7719,0,0,0-.4-.0362q-1.5256,0-2.979,2.4346a22.6606,22.6606,0,0,0-2.3613,5.9209,25.4282,25.4282,0,0,0-.9082,6.3574q0,.3282.0727,1.5625H99.418a9.1108,9.1108,0,0,1-.0367-.9443q0-2.2164.5816-7.4473l.4722-4.2148q.2175-1.8882.2177-2.5059a2.9411,2.9411,0,0,0-.2-1.1992.7747.7747,0,0,0-.7812-.4365,1.9657,1.9657,0,0,0-1.4165.872A7.3245,7.3245,0,0,0,97.02,14.2051l-1.0171-.2178a8.2673,8.2673,0,0,1,.7808-2.2158,6.4766,6.4766,0,0,1,1.5986-2.0527,3.4929,3.4929,0,0,1,2.3433-.8545,2.2833,2.2833,0,0,1,2.0342.9082,4.6429,4.6429,0,0,1,.6176,2.6162,23.5291,23.5291,0,0,1-.5449,4.3955h.1089a16.8485,16.8485,0,0,1,3.1973-6.1572,5.07,5.07,0,0,1,3.6689-1.7627A2.8641,2.8641,0,0,1,111.6426,9.4277Z"/><path class="cls-1" d="M128.5527,9.4824q-1.5988,11.8433-1.5986,14.5313a4.6819,4.6819,0,0,0,.1816,1.4717.7842.7842,0,0,0,.8355.5263,1.9648,1.9648,0,0,0,1.417-.8721,7.3241,7.3241,0,0,0,1.2353-2.6513l1.0171.2178a8.2761,8.2761,0,0,1-.7812,2.2158,6.4711,6.4711,0,0,1-1.5982,2.0527,3.5,3.5,0,0,1-2.3432.8535q-2.6887,0-2.6885-3.27a27.5016,27.5016,0,0,1,.6538-4.8682h-.1089q-1.5256,4.7959-3.3423,6.4668a5.5186,5.5186,0,0,1-3.7417,1.6709,4.1261,4.1261,0,0,1-3.36-1.5254,7.5005,7.5005,0,0,1-1.2534-4.7959,16.3391,16.3391,0,0,1,1.1987-6.3574,10.4082,10.4082,0,0,1,3.5967-4.5771,9.7546,9.7546,0,0,1,5.8125-1.708A19.4241,19.4241,0,0,1,128.5527,9.4824Zm-9.5547,2.1983a9.3131,9.3131,0,0,0-2.1616,3.9589,18.8429,18.8429,0,0,0-.708,5.25q0,5.3409,2.3613,5.34,1.5983,0,3.1968-2.5059a23.562,23.562,0,0,0,2.6519-6.1943,25.2591,25.2591,0,0,0,1.0537-6.9209,7.732,7.732,0,0,0-2.8335-.4355A4.7545,4.7545,0,0,0,118.998,11.6807Z"/><path class="cls-1" d="M149.0234,10.1729a5.6194,5.6194,0,0,1,.9629,3.415,50.113,50.113,0,0,1-.69,6.9746,35.1287,35.1287,0,0,0-.3994,3.7783,3.0472,3.0472,0,0,0,.2,1.2354.774.774,0,0,0,.7808.4355,1.9742,1.9742,0,0,0,1.4169-.8535,7.1375,7.1375,0,0,0,1.2354-2.67l1.0171.2539a8.041,8.041,0,0,1-.7813,2.1982,6.5422,6.5422,0,0,1-1.5981,2.0342,3.5,3.5,0,0,1-2.3433.8535,2.7173,2.7173,0,0,1-2.2885-.8535,4.3211,4.3211,0,0,1-.6543-2.6338,41.8492,41.8492,0,0,1,.4726-4.7959,50.2313,50.2313,0,0,0,.6538-6.7568,3.1046,3.1046,0,0,0-.3813-1.5254,1.3872,1.3872,0,0,0-1.3262-.69q-1.5988,0-3.2695,2.416a21.9467,21.9467,0,0,0-2.7793,5.958,22.05,22.05,0,0,0-1.1079,6.5566q0,.6915.0727,1.9258h-3.0517a9.1111,9.1111,0,0,1-.0362-.9443q0-.8716.1631-2.4346t.4907-4.1045a5.8253,5.8253,0,0,1,.0728-.7265q.0351-.4718.1089-.9815t.1089-1.0166q.2533-2.2163.3632-3.2334a16.2359,16.2359,0,0,0,.1089-1.6709,2.9411,2.9411,0,0,0-.2-1.1992.7747.7747,0,0,0-.7812-.4365,1.9657,1.9657,0,0,0-1.4165.872,7.3245,7.3245,0,0,0-1.2354,2.6524l-1.0171-.2178a8.2673,8.2673,0,0,1,.7808-2.2158,6.4766,6.4766,0,0,1,1.5986-2.0527,3.4929,3.4929,0,0,1,2.3433-.8545q2.7246,0,2.7246,3.7421a14.7667,14.7667,0,0,1-.2,2.3067q-.2,1.2539-.3814,2.2344h.1089a19.9442,19.9442,0,0,1,3.4693-6.4668,5.0687,5.0687,0,0,1,3.6875-1.8164A3.4752,3.4752,0,0,1,149.0234,10.1729Z"/><path class="cls-1" d="M171.2017,6.249l-.6538,5.667q-.5449,4.8326-.7994,7.6289-.2541,2.798-.2544,4.542a4.3413,4.3413,0,0,0,.1817,1.4346.7588.7588,0,0,0,.7993.49,1.9149,1.9149,0,0,0,1.3989-.8721,7.5472,7.5472,0,0,0,1.2168-2.6513l1.0537.2178a8.2761,8.2761,0,0,1-.7812,2.2158,6.4655,6.4655,0,0,1-1.5987,2.0527,3.4973,3.4973,0,0,1-2.3427.8535,2.5214,2.5214,0,0,1-2.1074-.872,3.7652,3.7652,0,0,1-.69-2.3975,24.4407,24.4407,0,0,1,.5449-4.6865H167.06q-1.344,4.5425-3.106,6.249a5.28,5.28,0,0,1-3.6875,1.707,4.0767,4.0767,0,0,1-3.6509-1.9433,8.992,8.992,0,0,1-1.2534-4.959,15.5814,15.5814,0,0,1,1.1987-6.3213,9.3163,9.3163,0,0,1,3.5786-4.2324,10.6108,10.6108,0,0,1,5.7945-1.5078,12.5441,12.5441,0,0,1,2.0347.1455l.5449-4.5049a20.8425,20.8425,0,0,1,.3994-2.2158l-2.6519.1455.145-1.4532a13.4006,13.4006,0,0,0,3.1246-.2548A3.7106,3.7106,0,0,0,171.02,0h1.0537Q171.4922,3.6343,171.2017,6.249Zm-9.8086,5.4492a8.9287,8.9287,0,0,0-2.2163,3.833,16.58,16.58,0,0,0-.69,4.7774,12.1923,12.1923,0,0,0,.5991,4.25,2.0471,2.0471,0,0,0,1.9439,1.5625,3.1925,3.1925,0,0,0,2.2524-1.29,12.9682,12.9682,0,0,0,2.107-3.3965,23.9783,23.9783,0,0,0,1.4892-4.5049q.4365-1.998.9087-6.3936a7.1937,7.1937,0,0,0-2.4707-.3632A5.3094,5.3094,0,0,0,161.3931,11.6982Z"/><path class="cls-1" d="M210.6182,3.1973a2.788,2.788,0,0,0-1.7071.49,1.9924,1.9924,0,0,0-.69,1.1631,14.952,14.952,0,0,0-.2178,2.0889l-.0371.7265-1.0166,20.1621h-1.7441L190.3462,6.6123h-.0723l-.5815,15.7666q-.0366.3633-.0362,1.0537a20.681,20.681,0,0,1-.2182,2.543l2.6157-.1455-.0723,1.5986H185.333l.0361-1.1992q2.4339,0,2.5435-2.8691l.9805-19.9083-2.4336.1446.0722-1.5977h4.3233l14.604,20.7793h.0732l.7627-16.7109a26.1884,26.1884,0,0,1,.2539-2.6153l-2.6152.1446.0723-1.5977H210.69Z"/><path class="cls-1" d="M225.2578,9.8818a3.5928,3.5928,0,0,1,1.4531,3.1612q0,2.688-3.2324,4.1777a24.19,24.19,0,0,1-7.4844,1.9609,10.2144,10.2144,0,0,0,1.0176,5.1231,3.3855,3.3855,0,0,0,3.124,1.707,5.5219,5.5219,0,0,0,3.2334-1.1074,9.2933,9.2933,0,0,0,2.7247-3.2881l1.1992.69a11.7224,11.7224,0,0,1-3.4151,4.1954,7.3944,7.3944,0,0,1-4.3593,1.3261,6.0868,6.0868,0,0,1-5.0323-2.0888,8.9125,8.9125,0,0,1-1.6884-5.7579,14.7092,14.7092,0,0,1,.999-5.4677,9.5005,9.5005,0,0,1,2.997-4.0869,7.6057,7.6057,0,0,1,4.8311-1.5625A6.1857,6.1857,0,0,1,225.2578,9.8818Zm-7.7373,2.4707a12.8585,12.8585,0,0,0-1.49,5.5215,14.6924,14.6924,0,0,0,5.4131-1.7431,3.7936,3.7936,0,0,0,2.2529-3.27,2.9328,2.9328,0,0,0-.6719-1.98,2.3834,2.3834,0,0,0-1.9072-.7813A3.9512,3.9512,0,0,0,217.5205,12.3525Z"/><path class="cls-1" d="M255.1934,10.6807a8.4865,8.4865,0,0,1,1.1259,4.542,14.3741,14.3741,0,0,1-.9082,4.9043,13.2478,13.2478,0,0,1-3.706,5.54,8.091,8.091,0,0,1-5.4492,2.1611,3.6813,3.6813,0,0,1-2.6338-1.0166,4.6162,4.6162,0,0,1-1.0713-3.4511q0-.6549.0361-1.0176h-.0723a9.0868,9.0868,0,0,1-2.5439,3.8691,5.4769,5.4769,0,0,1-3.7051,1.6162,3.2572,3.2572,0,0,1-2.8877-1.289,5.9368,5.9368,0,0,1-.8906-3.4336q0-1.4532.1816-3.3418t.3995-3.5606q.3631-3.1245.3632-3.8144a3.1706,3.1706,0,0,0-.1992-1.2715.7756.7756,0,0,0-.7812-.4365,1.8591,1.8591,0,0,0-1.3448.8545,7.5789,7.5789,0,0,0-1.1982,2.67l-1.0176-.2178a8.6818,8.6818,0,0,1,1.5078-3.4512,3.6366,3.6366,0,0,1,3.1065-1.6718,2.679,2.679,0,0,1,2.1972.9082,4.0363,4.0363,0,0,1,.7452,2.6162,63.5106,63.5106,0,0,1-.5811,6.7568q-.4,3.5244-.3994,4.5781a3.03,3.03,0,0,0,.3633,1.5616,1.2783,1.2783,0,0,0,1.1982.6181A4.2255,4.2255,0,0,0,240.08,24.377a11.1905,11.1905,0,0,0,2.3613-4.378,22.0154,22.0154,0,0,0,.9082-6.666,32.9006,32.9006,0,0,0-.2539-4.0684h3.124a6.83,6.83,0,0,1,.1455,1.6348,31.0794,31.0794,0,0,1-.1816,3.3965Q246,15.95,245.6748,18.165q-.1817,1.3447-.3447,2.6514a18.6958,18.6958,0,0,0-.1641,2.2891,4.1914,4.1914,0,0,0,.4365,2.0527,1.63,1.63,0,0,0,1.5616.7813,5.6792,5.6792,0,0,0,3.96-1.89,11.6293,11.6293,0,0,0,2.87-4.7588,12.15,12.15,0,0,0,.3819-1.7256,13.4372,13.4372,0,0,0,.1631-2.0888q0-3.4146-1.7442-4.1778a1.4814,1.4814,0,0,1-1.4892.9082,1.5888,1.5888,0,0,1-1.0537-.3994,1.44,1.44,0,0,1-.4717-1.1631,1.73,1.73,0,0,1,.5263-1.2353,2.21,2.21,0,0,1,1.6534-.5449A3.5923,3.5923,0,0,1,255.1934,10.6807Z"/><path class="cls-1" d="M6.1465,66.1826a1.7909,1.7909,0,0,0,1.5928-.6885,4.0941,4.0941,0,0,0,.3588-1.9521v-.89l.0284-14.5507L5.17,48.1309a2.78,2.78,0,0,0-2.54,1.19,7.2186,7.2186,0,0,0-.76,3.7744H.8081L.9805,47.04H17.7124l.1724,6.0557H16.7939a10.7591,10.7591,0,0,0-.3584-2.8848,2.8673,2.8673,0,0,0-1.12-1.6064,4.0171,4.0171,0,0,0-2.2529-.5313h-2.44l-.0288,15.6416a21.7489,21.7489,0,0,1-.0859,2.2666l2.3818-.1142V67.13H6.1465Z"/><path class="cls-1" d="M22.3906,66.1826a2.0648,2.0648,0,0,0,1.4351-.459,1.6317,1.6317,0,0,0,.4878-1.0185q.0572-.5889.0571-2.0528V50.2539q0-1.2056.0864-2.0664l-2.0664.1152V47.04q2.9847-.057,4.5059-.0576,1.3776,0,2.0664.0283,4.0466.0587,5.9263,1.3633a4.3136,4.3136,0,0,1,1.88,3.7744,5.5724,5.5724,0,0,1-1.1767,3.5586,6.7353,6.7353,0,0,1-4.19,2.1817,4.9025,4.9025,0,0,1,.89.89q.4014.517,1.0908,1.6074l1.9512,3.07q.6313,1.0049,1.0478,1.5361a3.33,3.33,0,0,0,1.0044.86,2.9182,2.9182,0,0,0,1.4492.33V67.13H35.2192a8.64,8.64,0,0,1-1.3056-1.3633q-.5318-.7031-1.2486-1.8223L30.7422,60.873l-.3731-.6025q-.4592-.7749-.8037-1.2627a5.5128,5.5128,0,0,0-.7461-.8613,7.9014,7.9014,0,0,1-.8037.0293q-.7749,0-1.1479-.0293v5.5683a21.7143,21.7143,0,0,1-.086,2.2666l2.0664-.1142V67.13H22.3906ZM33.9854,52.4639a4.09,4.09,0,0,0-1.2627-3.2715,5.8213,5.8213,0,0,0-3.8746-1.0908,2.0759,2.0759,0,0,0-1.435.4023,1.4975,1.4975,0,0,0-.4878.9756q-.0579.5742-.0576,2.0371v5.5107q.8613.0587,1.2627.0577Q33.9854,57.085,33.9854,52.4639Z"/><path class="cls-1" d="M42.3652,66.1826a1.8342,1.8342,0,0,0,1.148-.33,2.5032,2.5032,0,0,0,.7031-.86,13.6259,13.6259,0,0,0,.646-1.5938l.2871-.8027,5.9121-16.1016h.689l6.4,16.3311a12.8507,12.8507,0,0,1,.5454,1.6787,5.2227,5.2227,0,0,1,.2007,1.4775l1.9516-.1142V67.13H54.2759v-.9473q1.6934-.0277,1.6933-1.3769a4.1841,4.1841,0,0,0-.2871-1.35l-1.0044-2.6973-7.4619.1719q-.4306,1.1776-1.0044,3.0713-.2878.9462-.7177,1.9794l2.2387-.1142V67.13H42.3652Zm11.9107-6.4863-2.0376-5.4815-1.2915-3.53h-.0576l-1.2051,3.2431-1.55,4.3623-.4883,1.4063Z"/><path class="cls-1" d="M64.3784,66.1826a2.0648,2.0648,0,0,0,1.4351-.459,1.6317,1.6317,0,0,0,.4878-1.0185q.0572-.5889.0571-2.0528V50.2539q0-1.2056.0864-2.0664l-2.0664.1152V47.04l6.773-.0293q5.3957-.0278,8.5527,2.5264t3.1572,7.5762a10.1945,10.1945,0,0,1-1.2632,4.9941,9.22,9.22,0,0,1-3.7309,3.6592A12.1141,12.1141,0,0,1,71.9263,67.13H64.3784Zm11.7383-1.32a7.9388,7.9388,0,0,0,2.8984-3.2432,10.18,10.18,0,0,0,1.0332-4.62A9.0258,9.0258,0,0,0,77.7524,50.44q-2.296-2.3671-6.9165-2.3672a2.0761,2.0761,0,0,0-1.435.4014,1.5145,1.5145,0,0,0-.4878.99q-.0579.5889-.0576,2.0518V63.7432a21.3341,21.3341,0,0,1-.086,2.2382q1.0042.0587,3.0708.0577A7.84,7.84,0,0,0,76.1167,64.8623Z"/><path class="cls-1" d="M87.74,66.1826a2.0648,2.0648,0,0,0,1.4351-.459,1.6317,1.6317,0,0,0,.4878-1.0185q.0572-.5889.0571-2.0528V50.2539q0-1.2056.0865-2.0664l-2.0665.1152V47.04h13.8047l.1436,5.0225h-.9473q0-2.3526-1.019-3.2148a4.0925,4.0925,0,0,0-2.8555-.8038l-2.4683.0577a2.5642,2.5642,0,0,0-1.4921.3877,1.5667,1.5667,0,0,0-.5743,1.0048,12.7374,12.7374,0,0,0-.1147,2.0225v4.5928l5.3955.0283L97.4116,53.67h1.2627v6.0264h-.9472a3.9994,3.9994,0,0,0-.2583-1.6211,1.3408,1.3408,0,0,0-.7891-.7461,4.6423,4.6423,0,0,0-1.478-.1865l-.89.0283-2.0952.0859v6.5723a21.4069,21.4069,0,0,1-.0859,2.2393l5.4814-.087a4.4368,4.4368,0,0,0,3.0708-1.0185,4.5542,4.5542,0,0,0,1.062-3.43h.9761l-.1724,5.5967H87.74Z"/><path class="cls-1" d="M119.166,52.1484l-.373-1.1191q-.6893-2.1532-.8326-2.7842l-1.6074.0576V47.04h6.9741v.9473a3.4116,3.4116,0,0,0-1.6645.3867,1.2057,1.2057,0,0,0-.4878,1.0762,6.0611,6.0611,0,0,0,.2871,1.665q.5165,1.9235,1.3775,4.3047.1436.4307.3447,1.02.2.5874.459,1.3632.172.6021.4306,1.32.2578.7164.3731,1.0332.5735,1.55.8608,2.4678h.0576q.5736-1.9512,1.1763-3.7881,1.0335-3.33,2.2676-7.0322,1.2912-3.8745,1.55-4.8213h.9184q.3443,1.1778,1.1768,3.6885t1.2051,3.63q.8613,2.4682,1.1767,3.5019.2293.7749.7461,2.3243.5742,1.6654.9185,2.8418h.0864q.6885-2.24,1.1768-3.7032,1.4634-4.16,2.3818-7.1748.3158-1.0605.5742-1.7793a17.81,17.81,0,0,1,.89-2.0947l-2.2959.0859V47.04h5.8257v.9473a3.9817,3.9817,0,0,0-1.564.4307,2.6754,2.6754,0,0,0-.9473,1.1328,22.27,22.27,0,0,0-1.0473,2.6836l-1.4639,4.3623q-2.2962,6.9741-3.7021,10.82h-.8609l-5.3672-15.3545L125.1353,67.417h-.8321Z"/><path class="cls-1" d="M148.5542,66.1826a2.0652,2.0652,0,0,0,1.4351-.459,1.6317,1.6317,0,0,0,.4878-1.0185q.057-.5889.0571-2.0528V50.2539q0-1.2056.0864-2.0664l-2.0664.1152V47.04h13.8047l.1435,5.0225h-.9472q0-2.3526-1.0191-3.2148a4.0922,4.0922,0,0,0-2.8554-.8038l-2.4683.0577a2.5645,2.5645,0,0,0-1.4922.3877,1.5671,1.5671,0,0,0-.5742,1.0048,12.7224,12.7224,0,0,0-.1148,2.0225v4.5928l5.3956.0283-.2007-2.4678h1.2627v6.0264h-.9473a3.9977,3.9977,0,0,0-.2583-1.6211,1.3408,1.3408,0,0,0-.7891-.7461,4.6419,4.6419,0,0,0-1.478-.1865l-.89.0283-2.0953.0859v6.5723a21.4069,21.4069,0,0,1-.0859,2.2393l5.4815-.087a4.437,4.437,0,0,0,3.0708-1.0185,4.5542,4.5542,0,0,0,1.062-3.43h.976l-.1723,5.5967H148.5542Z"/><path class="cls-1" d="M168.6729,66.1826a2.0647,2.0647,0,0,0,1.435-.459,1.6561,1.6561,0,0,0,.4878-1.0478q.0572-.6168.0571-2.167V50.4551a21.0729,21.0729,0,0,1,.0865-2.2676l-2.0664.1152V47.04q4.1894-.057,6.4863-.0576a9.5217,9.5217,0,0,1,5.209,1.1914,4.0108,4.0108,0,0,1,1.8222,3.6016,4.1056,4.1056,0,0,1-1.22,2.8555,6.0788,6.0788,0,0,1-3.5156,1.708v.0576a7.08,7.08,0,0,1,4.7212,1.4062,4.6285,4.6285,0,0,1,1.65,3.7022,5.18,5.18,0,0,1-.875,2.999,5.55,5.55,0,0,1-2.4112,1.9512,8.5786,8.5786,0,0,1-3.4868.6748h-8.38Zm11.0351-1.2773a4,4,0,0,0,1.3345-3.2285,4.0855,4.0855,0,0,0-1.3633-3.4727,5.7643,5.7643,0,0,0-3.5732-1.0332q-1.5785,0-2.9561.0859v6.4864a21.3682,21.3682,0,0,1-.0859,2.2382q.5448.0587,2.0664.0577h.9756A5.3764,5.3764,0,0,0,179.708,64.9053ZM175.2451,56.08a4.1662,4.1662,0,0,0,3.3-1.2481,4.48,4.48,0,0,0,1.0332-2.999,3.3234,3.3234,0,0,0-1.2485-2.9853,5.3342,5.3342,0,0,0-3.0279-.8321,2.8755,2.8755,0,0,0-1.3774.2588,1.2981,1.2981,0,0,0-.6172.832A6.8345,6.8345,0,0,0,173.15,50.8v5.3379Z"/><path class="cls-1" d="M192.7949,67.2158a7.7325,7.7325,0,0,1-2.3965-1.0908l.1436,1.2344H189.05l-.1724-6.1133h1.1192a5.1649,5.1649,0,0,0,1.6933,3.8027,5.8135,5.8135,0,0,0,3.9322,1.335,4.5336,4.5336,0,0,0,2.9424-.9619,3.1948,3.1948,0,0,0,1.19-2.626,3.3573,3.3573,0,0,0-.6738-2.1094,5.8678,5.8678,0,0,0-1.6651-1.4638,29.5371,29.5371,0,0,0-2.6836-1.3633q-1.9233-.9171-3.0566-1.6065a6.4873,6.4873,0,0,1-1.9375-1.8232,4.7116,4.7116,0,0,1-.8032-2.7979,5.4315,5.4315,0,0,1,.5307-2.2959,4.5724,4.5724,0,0,1,1.8369-1.9511,6.5355,6.5355,0,0,1,3.459-.8037,10.5838,10.5838,0,0,1,2.5967.33,6.8349,6.8349,0,0,1,2.3965,1.1328l-.1143-1.2334h1.4629V53.124H200.07a6.44,6.44,0,0,0-1.4492-3.831,4.5024,4.5024,0,0,0-3.6592-1.5645,3.6746,3.6746,0,0,0-2.6973.9619,3.2245,3.2245,0,0,0-.9765,2.3965,3.0851,3.0851,0,0,0,.66,1.98,5.5831,5.5831,0,0,0,1.6075,1.3779q.9477.5465,2.6689,1.3487A32.2675,32.2675,0,0,1,199.3672,57.4a6.7694,6.7694,0,0,1,2.0234,1.88,4.7809,4.7809,0,0,1,.833,2.8554,4.9944,4.9944,0,0,1-3.1,4.7647,8.7163,8.7163,0,0,1-3.6162.6885A10.2275,10.2275,0,0,1,192.7949,67.2158Z"/><path class="cls-1" d="M207.36,66.1826a2.0642,2.0642,0,0,0,1.4345-.459,1.6323,1.6323,0,0,0,.4883-1.0185q.0572-.5889.0566-2.0528V50.2539q0-1.2056.087-2.0664l-2.0664.1152V47.04h6.457v.9473a2.0631,2.0631,0,0,0-1.4346.459,1.6272,1.6272,0,0,0-.4883,1.0185q-.0571.5889-.0576,2.0518V63.7148a21.6082,21.6082,0,0,1-.0859,2.2666l2.0664-.1142V67.13H207.36Z"/><path class="cls-1" d="M223.6611,66.1826a1.79,1.79,0,0,0,1.5928-.6885,4.0858,4.0858,0,0,0,.3594-1.9521v-.89l.0283-14.5507-2.9561.0293a2.78,2.78,0,0,0-2.54,1.19,7.2191,7.2191,0,0,0-.7607,3.7744h-1.0616l.1719-6.0557h16.7324l.1719,6.0557h-1.0908a10.7469,10.7469,0,0,0-.3584-2.8848,2.8671,2.8671,0,0,0-1.1191-1.6064,4.0189,4.0189,0,0,0-2.253-.5313h-2.4394l-.0293,15.6416a21.5741,21.5741,0,0,1-.086,2.2666l2.3819-.1142V67.13h-6.7442Z"/><path class="cls-1" d="M239.9053,66.1826a2.0652,2.0652,0,0,0,1.4355-.459,1.6306,1.6306,0,0,0,.4873-1.0185q.0571-.5889.0576-2.0528V50.2539q0-1.2056.086-2.0664l-2.0664.1152V47.04H253.71l.1435,5.0225h-.9473q0-2.3526-1.0185-3.2148a4.0939,4.0939,0,0,0-2.8555-.8038l-2.4687.0577a2.5645,2.5645,0,0,0-1.4922.3877,1.5662,1.5662,0,0,0-.5742,1.0048,12.7976,12.7976,0,0,0-.1143,2.0225v4.5928l5.3955.0283-.2012-2.4678H250.84v6.0264h-.9472a4.0092,4.0092,0,0,0-.2578-1.6211,1.3421,1.3421,0,0,0-.7891-.7461,4.6436,4.6436,0,0,0-1.4785-.1865l-.89.0283-2.0947.0859v6.5723a21.5481,21.5481,0,0,1-.0859,2.2393l5.4814-.087a4.4363,4.4363,0,0,0,3.07-1.0185,4.5542,4.5542,0,0,0,1.0625-3.43h.9756l-.1719,5.5967H239.9053Z"/><path class="cls-1" d="M43.94,92.2393a8.8846,8.8846,0,0,1,3.418,3.7949A13.1884,13.1884,0,0,1,48.59,101.94a19.1194,19.1194,0,0,1-1.4829,7.59,13.2956,13.2956,0,0,1-4.2724,5.5537,10.6493,10.6493,0,0,1-6.56,2.0859q-4.7754,0-7.2129-3.1416a12.8558,12.8558,0,0,1-2.4375-8.1172,18.4813,18.4813,0,0,1,1.5078-7.54,12.9044,12.9044,0,0,1,4.3228-5.4277A11.0352,11.0352,0,0,1,39.04,90.9326,9.37,9.37,0,0,1,43.94,92.2393ZM34.39,94.375a10.0581,10.0581,0,0,0-2.4882,4.3232,20.4542,20.4542,0,0,0-.8545,6.1075,18.308,18.308,0,0,0,1.3574,7.3125,4.5828,4.5828,0,0,0,4.4233,3.1416,5.2167,5.2167,0,0,0,4.1968-1.96,12.3216,12.3216,0,0,0,2.3877-4.8252,21.89,21.89,0,0,0,.7539-5.5791,17.313,17.313,0,0,0-1.332-7.1631,4.6739,4.6739,0,0,0-4.5991-2.94A5.3452,5.3452,0,0,0,34.39,94.375Z"/><path class="cls-1" d="M74.9023,92.7422a7.78,7.78,0,0,1,1.3321,4.7246,69.3641,69.3641,0,0,1-.9551,9.65,48.5769,48.5769,0,0,0-.5527,5.2275,4.2137,4.2137,0,0,0,.2763,1.709,1.07,1.07,0,0,0,1.0806.6035,2.7317,2.7317,0,0,0,1.96-1.1816,9.8845,9.8845,0,0,0,1.709-3.6944l1.4073.3516a11.1262,11.1262,0,0,1-1.0806,3.041,9.0565,9.0565,0,0,1-2.2119,2.8155A4.8416,4.8416,0,0,1,74.626,117.17a3.7614,3.7614,0,0,1-3.1665-1.1806,5.9794,5.9794,0,0,1-.9048-3.6446,57.9141,57.9141,0,0,1,.6533-6.6347,69.4809,69.4809,0,0,0,.9048-9.3487A4.2964,4.2964,0,0,0,71.585,94.25a1.9184,1.9184,0,0,0-1.8345-.9551q-2.2126,0-4.5239,3.3428a34.1045,34.1045,0,0,0-5.3785,17.3154q0,.955.1006,2.6641H55.7266a12.6572,12.6572,0,0,1-.05-1.3067q0-1.2069.226-3.3681t.6788-5.68a8.1061,8.1061,0,0,1,.1005-1.0049q.05-.6533.1509-1.3574t.1509-1.4072q.3508-3.066.5024-4.4737a22.5041,22.5041,0,0,0,.1509-2.3125,4.0747,4.0747,0,0,0-.2763-1.6582,1.0719,1.0719,0,0,0-1.0806-.6035,2.7188,2.7188,0,0,0-1.9605,1.207,10.1135,10.1135,0,0,0-1.7089,3.669L51.2031,98.02a11.445,11.445,0,0,1,1.0806-3.0664,8.9718,8.9718,0,0,1,2.2114-2.84,4.8352,4.8352,0,0,1,3.2422-1.1807q3.77,0,3.77,5.1768a20.4116,20.4116,0,0,1-.2763,3.1924q-.2769,1.7328-.5279,3.0908h.1509q2.4126-6.4337,4.8-8.9473a7.01,7.01,0,0,1,5.1016-2.5127A4.8064,4.8064,0,0,1,74.9023,92.7422Z"/><path class="cls-1" d="M104.8081,92.34a6.126,6.126,0,0,1,1.0806,3.82,47.568,47.568,0,0,1-.8545,6.8857q-.5032,3.167-.7793,5.3027a32.64,32.64,0,0,0-.2764,4.1973q0,2.1108,1.5581,2.1113a2.7207,2.7207,0,0,0,1.96-1.207,10.1392,10.1392,0,0,0,1.709-3.669l1.4072.3018a13.3343,13.3343,0,0,1-2.1612,4.9,4.7852,4.7852,0,0,1-4.0712,2.1865q-4.5243,0-4.524-4.7246a28.436,28.436,0,0,1,.2515-3.82q.2512-1.8589.7539-4.624.5017-3.066.729-4.75a26.6853,26.6853,0,0,0,.2261-3.544,3.6632,3.6632,0,0,0-.3267-1.5576,1.1146,1.1146,0,0,0-1.0805-.7041,2.7184,2.7184,0,0,0-1.96,1.207,10.1151,10.1151,0,0,0-1.709,3.669L95.3335,98.02a12.1876,12.1876,0,0,1,2.0605-4.7754,4.9712,4.9712,0,0,1,4.2725-2.3115A3.7235,3.7235,0,0,1,104.8081,92.34Zm1.6333-11.46a2.892,2.892,0,0,1,.7539,2.06,2.71,2.71,0,0,1-.8042,2.0362,2.6508,2.6508,0,0,1-1.91.7783,2.5665,2.5665,0,0,1-1.8852-.7783,2.7538,2.7538,0,0,1-.7788-2.0362,2.789,2.789,0,0,1,.8042-2.06,2.6083,2.6083,0,0,1,1.91-.8047A2.505,2.505,0,0,1,106.4414,80.88Z"/><path class="cls-1" d="M121.269,91.4854h7.9922l-.1508,1.91-8.0425.1006-.3516,3.2168q-1.1067,9.5508-1.1059,13.52a9.1886,9.1886,0,0,0,.4526,3.167,1.83,1.83,0,0,0,1.91,1.206q2.6131,0,4.7251-3.5185l1.3066.8545a13.3808,13.3808,0,0,1-3.2422,3.9463,6.4086,6.4086,0,0,1-3.9956,1.2812,4.6489,4.6489,0,0,1-3.9961-1.6582,6.9812,6.9812,0,0,1-1.2314-4.2724q0-2.9151.352-7.6651t.9546-10.0283l-4.4731.0508.1508-2.1113a6.75,6.75,0,0,0,4.8755-1.7842,11.632,11.632,0,0,0,2.8648-5.3028h1.91Z"/><path class="cls-1" d="M146.1748,92.3145a4.0827,4.0827,0,0,1,2.2368,3.5439,2.3294,2.3294,0,0,1-.6035,1.6836A2,2,0,0,1,146.3,98.17a1.9012,1.9012,0,0,1-1.4326-.6025A1.9707,1.9707,0,0,1,144.29,96.16a2.8238,2.8238,0,0,1,.4526-1.5586,2.6153,2.6153,0,0,0-1.3067-1.458,5.41,5.41,0,0,0-2.6137-.5528,5.0249,5.0249,0,0,0-3.1919,1.1309,3.4779,3.4779,0,0,0-1.4326,2.84,3.4262,3.4262,0,0,0,1.3071,2.6143,25.3,25.3,0,0,0,4.021,2.7138,41.8158,41.8158,0,0,1,3.6689,2.3379,10.3118,10.3118,0,0,1,2.3877,2.4375,5.4126,5.4126,0,0,1,.98,3.167,6.3419,6.3419,0,0,1-1.1811,3.77,7.9037,7.9037,0,0,1-3.3423,2.6132,12.0755,12.0755,0,0,1-4.9258.9551,10.6471,10.6471,0,0,1-5.6548-1.457,4.4271,4.4271,0,0,1-2.3877-3.9209,2.5433,2.5433,0,0,1,.6284-1.76,1.9789,1.9789,0,0,1,1.5332-.7031,1.91,1.91,0,0,1,1.5078.6279,2.1777,2.1777,0,0,1,.5528,1.4834,2.8218,2.8218,0,0,1-.4522,1.5576,2.9677,2.9677,0,0,0,1.5581,1.6836,5.56,5.56,0,0,0,2.6138.6289,5.902,5.902,0,0,0,4.0459-1.2314,4.4984,4.4984,0,0,0,1.3823-3.5439,3.8111,3.8111,0,0,0-1.4072-2.9151,26.9059,26.9059,0,0,0-4.2725-2.915,27.9794,27.9794,0,0,1-4.8505-3.3682,4.7526,4.7526,0,0,1-1.6333-3.6191,5.7026,5.7026,0,0,1,1.1054-3.3672,7.6846,7.6846,0,0,1,3.0913-2.4883,10.481,10.481,0,0,1,4.4986-.93A9.7,9.7,0,0,1,146.1748,92.3145Z"/><path class="cls-1" d="M200.9365,93.4453a11.7334,11.7334,0,0,1,1.5586,6.2832,19.8694,19.8694,0,0,1-1.2568,6.7861,18.33,18.33,0,0,1-5.127,7.6651,11.1963,11.1963,0,0,1-7.54,2.99,5.0948,5.0948,0,0,1-3.6441-1.4072q-1.483-1.4062-1.4829-4.7754,0-.9038.05-1.4072h-.1006a12.5739,12.5739,0,0,1-3.5185,5.3535,7.5813,7.5813,0,0,1-5.1265,2.2363,4.5074,4.5074,0,0,1-3.9961-1.7842,8.2116,8.2116,0,0,1-1.2314-4.75q0-2.01.251-4.624t.5532-4.9258q.5017-4.3227.5024-5.2783a4.3883,4.3883,0,0,0-.2763-1.7588,1.0719,1.0719,0,0,0-1.0806-.6035,2.5713,2.5713,0,0,0-1.86,1.1817,10.4707,10.4707,0,0,0-1.6587,3.6943l-1.4072-.3018a12.01,12.01,0,0,1,2.0859-4.7754,5.0322,5.0322,0,0,1,4.2974-2.3115A3.7042,3.7042,0,0,1,173.97,92.19,5.5792,5.5792,0,0,1,175,95.8076a87.7509,87.7509,0,0,1-.8042,9.35q-.5537,4.875-.5527,6.333a4.2044,4.2044,0,0,0,.5024,2.1612,1.7706,1.7706,0,0,0,1.6587.8545,5.8463,5.8463,0,0,0,4.2222-2.11,15.5132,15.5132,0,0,0,3.2671-6.0576,30.4756,30.4756,0,0,0,1.2568-9.2227,45.38,45.38,0,0,0-.3521-5.63h4.3228a9.452,9.452,0,0,1,.2012,2.2617,43.0251,43.0251,0,0,1-.2515,4.7q-.252,2.2866-.7036,5.3525-.252,1.86-.4775,3.669a25.9377,25.9377,0,0,0-.2261,3.1669,5.8064,5.8064,0,0,0,.603,2.84,2.2588,2.2588,0,0,0,2.1616,1.081,7.8564,7.8564,0,0,0,5.4785-2.6142,16.0685,16.0685,0,0,0,3.9707-6.584,16.8554,16.8554,0,0,0,.5284-2.3877,18.5488,18.5488,0,0,0,.2265-2.8906q0-4.7241-2.4131-5.78a2.05,2.05,0,0,1-2.06,1.2568,2.1971,2.1971,0,0,1-1.458-.5527,1.9893,1.9893,0,0,1-.6533-1.6084,2.3941,2.3941,0,0,1,.7285-1.709,3.0555,3.0555,0,0,1,2.2871-.7539A4.968,4.968,0,0,1,200.9365,93.4453Z"/><path class="cls-1" d="M227.8271,91.7871q-2.2119,16.3857-2.2119,20.1055a6.4432,6.4432,0,0,0,.252,2.0351,1.0846,1.0846,0,0,0,1.1553.73,2.7215,2.7215,0,0,0,1.9609-1.207,10.1375,10.1375,0,0,0,1.709-3.669l1.4072.3018a11.4864,11.4864,0,0,1-1.081,3.0664,8.9755,8.9755,0,0,1-2.211,2.84,4.8444,4.8444,0,0,1-3.2422,1.1806q-3.7206,0-3.72-4.5234a38.1067,38.1067,0,0,1,.9043-6.7354h-.15q-2.1108,6.6343-4.624,8.9473a7.6377,7.6377,0,0,1-5.1777,2.3115,5.7061,5.7061,0,0,1-4.6495-2.1113q-1.7328-2.1108-1.7334-6.6348a22.6133,22.6133,0,0,1,1.6582-8.7959,14.4078,14.4078,0,0,1,4.9766-6.333,13.4969,13.4969,0,0,1,8.042-2.3623A26.916,26.916,0,0,1,227.8271,91.7871Zm-13.22,3.041a12.8787,12.8787,0,0,0-2.99,5.4785,26.066,26.066,0,0,0-.9805,7.2627q0,7.3887,3.2676,7.3887,2.21,0,4.4228-3.4678a32.5491,32.5491,0,0,0,3.669-8.57,34.9314,34.9314,0,0,0,1.458-9.5752,10.7256,10.7256,0,0,0-3.9209-.6025A6.5765,6.5765,0,0,0,214.6074,94.8281Z"/><path class="cls-1" d="M254.5664,92.792a9.9343,9.9343,0,0,1,.9551,4.5742,28.1029,28.1029,0,0,1-1.81,9.5752,73.2868,73.2868,0,0,1-4.875,10.53,39.3807,39.3807,0,0,1-6.8867,9.7012q-3.268,3.0644-6.3828,3.0654a4.56,4.56,0,0,1-2.94-.9043,2.7856,2.7856,0,0,1-1.1309-2.2617,2.225,2.225,0,0,1,.6533-1.6836,1.9978,1.9978,0,0,1,1.4072-.6289,2.0308,2.0308,0,0,1,1.6338.6787,2.7286,2.7286,0,0,1,.5274,1.9355,2.7259,2.7259,0,0,0,1.1054.3516q1.91.1,4.0967-2.4131a32.6246,32.6246,0,0,0,3.5938-4.9258,120.6379,120.6379,0,0,0-2.5127-12.4648,84.3893,84.3893,0,0,0-3.6192-11.1592,12.3605,12.3605,0,0,0-1.0556-1.9346,1.4629,1.4629,0,0,0-1.2569-.6289,1.5739,1.5739,0,0,0-1.3818,1.0557A6.4839,6.4839,0,0,0,234.16,98.12a12.5449,12.5449,0,0,0,.05,1.3067l-1.6084.2011q-.0513-.5023-.0508-1.5078a11.0217,11.0217,0,0,1,1.081-5.0762,3.6881,3.6881,0,0,1,3.544-2.1113,4.2373,4.2373,0,0,1,3.5185,1.583,14.4453,14.4453,0,0,1,2.1612,4.0967,59.3891,59.3891,0,0,1,1.8095,5.8555q.8028,3.142,1.91,8.0674.3018,1.4589.7539,5.1269h.1006a55.3261,55.3261,0,0,0,4.0713-8.8711,25.3359,25.3359,0,0,0,1.6582-8.42,9.4338,9.4338,0,0,0-.2256-2.1611,4.5275,4.5275,0,0,0-.5283-1.4073,2.248,2.248,0,0,1-1.2569.3018,1.9332,1.9332,0,0,1-2.01-1.9609,1.9928,1.9928,0,0,1,.7031-1.6329,2.5347,2.5347,0,0,1,1.6592-.5781A3.21,3.21,0,0,1,254.5664,92.792Z"/><path class="cls-1" d="M5.05,89.8389a3.07,3.07,0,0,1,.5415,1.9131,23.8346,23.8346,0,0,1-.4282,3.4492q-.252,1.5849-.39,2.6552a16.3944,16.3944,0,0,0-.1381,2.1016q0,1.0576.78,1.0576a1.3617,1.3617,0,0,0,.9815-.6045,5.0774,5.0774,0,0,0,.8559-1.8369l.7046.15a6.6707,6.6707,0,0,1-1.082,2.4541,2.3971,2.3971,0,0,1-2.0391,1.0957q-2.2653,0-2.2656-2.3662a14.2508,14.2508,0,0,1,.126-1.9131q.126-.9317.3774-2.3164.252-1.5351.3653-2.3779a13.3323,13.3323,0,0,0,.1132-1.7754,1.8348,1.8348,0,0,0-.1635-.78.5587.5587,0,0,0-.541-.3525,1.3631,1.3631,0,0,0-.982.6045A5.0749,5.0749,0,0,0,1.01,92.835l-.7046-.1514A6.1056,6.1056,0,0,1,1.3369,90.292a2.4886,2.4886,0,0,1,2.14-1.1572A1.8653,1.8653,0,0,1,5.05,89.8389Zm.8184-5.7383a1.4488,1.4488,0,0,1,.3774,1.0312,1.3565,1.3565,0,0,1-.4028,1.02,1.3262,1.3262,0,0,1-.9566.3906,1.2831,1.2831,0,0,1-.9438-.3906,1.3771,1.3771,0,0,1-.39-1.02,1.3961,1.3961,0,0,1,.4029-1.0312,1.3054,1.3054,0,0,1,.9565-.4033A1.2555,1.2555,0,0,1,5.8682,84.1006Z"/><path class="cls-1" d="M16.6035,89.8271a2.0439,2.0439,0,0,1,1.12,1.7745,1.1645,1.1645,0,0,1-.3022.8427,1.0025,1.0025,0,0,1-.7554.3145.954.954,0,0,1-.7173-.3018.9874.9874,0,0,1-.29-.705,1.4161,1.4161,0,0,1,.2265-.78,1.3084,1.3084,0,0,0-.6543-.73,2.7058,2.7058,0,0,0-1.309-.2774,2.5193,2.5193,0,0,0-1.5982.5664,1.7429,1.7429,0,0,0-.7173,1.4229,1.7161,1.7161,0,0,0,.6543,1.3086,12.7662,12.7662,0,0,0,2.0137,1.3594,20.8211,20.8211,0,0,1,1.8374,1.17,5.1932,5.1932,0,0,1,1.1958,1.2207,2.7128,2.7128,0,0,1,.4907,1.5859,3.1744,3.1744,0,0,1-.5913,1.8877,3.9529,3.9529,0,0,1-1.6738,1.31,6.0559,6.0559,0,0,1-2.4668.4785,5.3294,5.3294,0,0,1-2.832-.7305A2.2146,2.2146,0,0,1,9.04,99.5811a1.2754,1.2754,0,0,1,.3144-.8819.9915.9915,0,0,1,.7676-.3515.9546.9546,0,0,1,.7554.3144,1.0876,1.0876,0,0,1,.2768.7422,1.411,1.411,0,0,1-.2266.78,1.4893,1.4893,0,0,0,.78.8437,2.7886,2.7886,0,0,0,1.3091.3145,2.95,2.95,0,0,0,2.0259-.6172,2.2515,2.2515,0,0,0,.6924-1.7744,1.91,1.91,0,0,0-.7046-1.46,13.5141,13.5141,0,0,0-2.14-1.46,13.9546,13.9546,0,0,1-2.4292-1.6865,2.38,2.38,0,0,1-.8178-1.8125,2.8584,2.8584,0,0,1,.5537-1.6865,3.8458,3.8458,0,0,1,1.5478-1.2451,5.2484,5.2484,0,0,1,2.2529-.4658A4.8527,4.8527,0,0,1,16.6035,89.8271Z"/></svg>