<svg preserveAspectRatio="xMidYMid meet" id="Layer_1" data-name="Layer 1" xmlns="http://www.w3.org/2000/svg" xmlns:xlink="http://www.w3.org/1999/xlink" width="140.0002mm" height="167.6042mm" viewBox="0 0 396.8511 475.0985"><defs><style>.cls-1{fill:#1d1d1b;}.cls-2{fill:#a6d6cc;}.cls-3{fill:#fff;}.cls-4{fill:#d9bddc;}.cls-5{fill:#60c2d4;}.cls-6{fill:#fdf5ae;}.cls-7{fill:#f2e734;}.cls-8{fill:#fdc533;}</style><symbol id="Eyes" data-name="Eyes" viewBox="0 0 7.233 1.848"><circle class="cls-1" cx="6.309" cy="0.9239" r="0.9239"/><circle class="cls-1" cx="0.9239" cy="0.9239" r="0.9239"/></symbol></defs><path class="cls-2" d="M211.0835,318.52c-15.4287,0-38.3838-1.5293-38.3838-5.7432s22.9551-5.7432,38.3838-5.7432,38.3838,1.5293,38.3838,5.7432S226.5122,318.52,211.0835,318.52Zm0-10.4864c-23.1621,0-37.3838,2.7627-37.3838,4.7432s14.2217,4.7432,37.3838,4.7432,37.3838-2.7627,37.3838-4.7432S234.2456,308.0332,211.0835,308.0332Z"/><path class="cls-2" d="M211.0835,326.6348c-47.6865,0-97.0122-5.1836-97.0122-13.8584s49.3257-13.8574,97.0122-13.8574,97.0117,5.1836,97.0117,13.8574S258.77,326.6348,211.0835,326.6348Zm0-26.7158c-57.4321,0-96.0122,6.6484-96.0122,12.8574s38.58,12.8584,96.0122,12.8584,96.0117-6.6485,96.0117-12.8584S268.5152,299.919,211.0835,299.919Z"/><rect class="cls-3" x="203.3765" y="179.4551" width="3.5078" height="233.1592"/><polygon class="cls-4" points="206.884 332.867 203.377 329.359 203.377 319.566 206.884 323.074 206.884 332.867"/><polygon class="cls-4" points="206.884 182.68 203.377 186.188 203.377 195.981 206.884 192.473 206.884 182.68"/><polygon class="cls-4" points="206.884 202.267 203.377 205.774 203.377 215.567 206.884 212.06 206.884 202.267"/><polygon class="cls-4" points="206.884 221.854 203.377 225.361 203.377 235.154 206.884 231.647 206.884 221.854"/><polygon class="cls-4" points="206.884 241.44 203.377 244.948 203.377 254.741 206.884 251.233 206.884 241.44"/><polygon class="cls-4" points="206.884 261.027 203.377 264.535 203.377 274.328 206.884 270.82 206.884 261.027"/><polygon class="cls-4" points="206.884 280.613 203.377 284.121 203.377 293.915 206.884 290.407 206.884 280.613"/><polygon class="cls-4" points="206.884 300.201 203.377 303.709 203.377 313.502 206.884 309.994 206.884 300.201"/><polygon class="cls-4" points="206.884 391.628 203.377 388.12 203.377 378.326 206.884 381.834 206.884 391.628"/><polygon class="cls-4" points="206.884 372.041 203.377 368.533 203.377 358.74 206.884 362.248 206.884 372.041"/><polygon class="cls-4" points="206.884 352.454 203.377 348.946 203.377 339.153 206.884 342.661 206.884 352.454"/><rect class="cls-3" x="215.0298" y="179.4551" width="3.5078" height="233.1592"/><polygon class="cls-5" points="218.538 332.867 215.03 329.359 215.03 319.566 218.538 323.074 218.538 332.867"/><polygon class="cls-5" points="218.538 182.68 215.03 186.188 215.03 195.981 218.538 192.473 218.538 182.68"/><polygon class="cls-5" points="218.538 202.267 215.03 205.774 215.03 215.567 218.538 212.06 218.538 202.267"/><polygon class="cls-5" points="218.538 221.854 215.03 225.361 215.03 235.154 218.538 231.647 218.538 221.854"/><polygon class="cls-5" points="218.538 241.44 215.03 244.948 215.03 254.741 218.538 251.233 218.538 241.44"/><polygon class="cls-5" points="218.538 261.027 215.03 264.535 215.03 274.328 218.538 270.82 218.538 261.027"/><polygon class="cls-5" points="218.538 280.613 215.03 284.121 215.03 293.915 218.538 290.407 218.538 280.613"/><polygon class="cls-5" points="218.538 300.201 215.03 303.709 215.03 313.502 218.538 309.994 218.538 300.201"/><polygon class="cls-5" points="218.538 391.628 215.03 388.12 215.03 378.326 218.538 381.834 218.538 391.628"/><polygon class="cls-4" points="206.884 411.153 203.377 407.645 203.377 397.851 206.884 401.359 206.884 411.153"/><polygon class="cls-5" points="218.538 411.153 215.03 407.645 215.03 397.851 218.538 401.359 218.538 411.153"/><polygon class="cls-4" points="206.884 430.678 203.377 427.17 203.377 417.376 206.884 420.884 206.884 430.678"/><polygon class="cls-5" points="218.538 430.678 215.03 427.17 215.03 417.376 218.538 420.884 218.538 430.678"/><polygon class="cls-4" points="206.884 450.203 203.377 446.695 203.377 436.901 206.884 440.409 206.884 450.203"/><polygon class="cls-5" points="218.538 450.203 215.03 446.695 215.03 436.901 218.538 440.409 218.538 450.203"/><polygon class="cls-4" points="206.884 469.728 203.377 466.22 203.377 456.426 206.884 459.934 206.884 469.728"/><polygon class="cls-5" points="218.538 469.728 215.03 466.22 215.03 456.426 218.538 459.934 218.538 469.728"/><polygon class="cls-5" points="218.538 372.041 215.03 368.533 215.03 358.74 218.538 362.248 218.538 372.041"/><polygon class="cls-5" points="218.538 352.454 215.03 348.946 215.03 339.153 218.538 342.661 218.538 352.454"/><path class="cls-2" d="M211.0835,318.52c-15.4287,0-38.3838-1.5293-38.3838-5.7432h1c0,1.98,14.2217,4.7432,37.3838,4.7432s37.3838-2.7627,37.3838-4.7432h1C249.4673,316.99,226.5122,318.52,211.0835,318.52Z"/><path class="cls-2" d="M211.0835,326.6348c-47.6865,0-97.0122-5.1836-97.0122-13.8584h1c0,6.21,38.58,12.8584,96.0122,12.8584s96.0117-6.6485,96.0117-12.8584h1C308.0952,321.4512,258.77,326.6348,211.0835,326.6348Z"/><path class="cls-6" d="M137.1826,32.1065A933.37,933.37,0,0,0,36.5855,116.98,933.2753,933.2753,0,0,0,148.1812,47.1973Z"/><path class="cls-7" d="M199.0806,177.5713c-48.9849-7.9551-84.73-38.82-79.8389-68.9414,3.4429-21.2012,14.3506-45.4531,38.0757-61.7676l-8.4009-5.1347C110.75,63.625,99.14,99.66,99.14,128.5723c0,32.668,42.9448,59.15,95.92,59.15,22.0254,0,42.3164-4.5781,58.5078-12.2744C237.7339,179.7705,218.8394,180.78,199.0806,177.5713Z"/><path class="cls-8" d="M253.5679,175.4483c16.1016-7.67,28.2139-18.461,33.8564-30.8662a151.4708,151.4708,0,0,0-163.7378-11.7452c11.0337,20.9746,39.6988,38.9375,75.3941,44.7344,19.7588,3.209,38.6533,2.1992,54.4873-2.123Z"/><path class="cls-7" d="M335.0913,204.7119A151.5821,151.5821,0,0,0,223.7525,116.669,151.5821,151.5821,0,0,0,335.0913,204.7119Z"/><path class="cls-7" d="M136.3487,36.0733a13.26,13.26,0,1,1,13.26,13.26A13.26,13.26,0,0,1,136.3487,36.0733Z"/><use width="7.2328" height="1.8478" transform="translate(143.7976 33.2565)" xlink:href="#Eyes"/><path class="cls-4" d="M150.0786,28.45c4.9356,0,9.0215-1.47,9.7217-3.3838l-.2324-.2881L148.13,28.3721C148.76,28.4229,149.4116,28.45,150.0786,28.45Z"/><path class="cls-3" d="M148.13,28.3721l11.438-3.5938L157.4385,22.14,142.2876,26.9A15.785,15.785,0,0,0,148.13,28.3721Z"/><path class="cls-5" d="M155.31,19.501l-14.0151,4.4033-.9371,1.1611a3.8046,3.8046,0,0,0,1.93,1.835L157.4385,22.14Z"/><polygon class="cls-3" points="141.294 23.904 155.31 19.501 153.181 16.862 144.87 19.474 141.294 23.904"/><polygon class="cls-4" points="144.87 19.474 153.181 16.862 151.052 14.225 148.445 15.043 144.87 19.474"/><polygon class="cls-3" points="150.079 13.019 148.445 15.043 151.052 14.225 150.079 13.019"/><path class="cls-3" d="M142.2876,46.7852q-.5112,0-1.0137-.0274a.25.25,0,0,1-.2353-.2636c.0078-.1377.1157-.2159.2637-.2364q.4884.0279.9853.0274c8.5567,0,15.5176-6.086,15.5176-13.5674a12.0744,12.0744,0,0,0-1.6655-6.1211.25.25,0,1,1,.4326-.25,12.561,12.561,0,0,1,1.7329,6.3711C158.3052,40.4746,151.12,46.7852,142.2876,46.7852Z"/><path class="cls-1" d="M151.5254,33.959a1.4175,1.4175,0,1,1-1.417-1.418A1.4169,1.4169,0,0,1,151.5254,33.959Z"/><path class="cls-1" d="M146.14,33.959a1.4175,1.4175,0,1,1-1.417-1.418A1.4169,1.4169,0,0,1,146.14,33.959Z"/></svg>