<svg id="Layer_1" data-name="Layer 1" xmlns="http://www.w3.org/2000/svg" xmlns:xlink="http://www.w3.org/1999/xlink" width="105.3062mm" height="232.5052mm" viewBox="0 0 298.5058 659.07"><defs><style>.cls-1{fill:#1d1d1b;}.cls-2{fill:#fff;}.cls-3{fill:#d9bddc;}.cls-4{fill:#60c2d4;}.cls-5{fill:#fdf5ae;}.cls-6{fill:#f2e734;}.cls-7{fill:#fdc533;}</style><symbol id="Eyes" data-name="Eyes" viewBox="0 0 7.233 1.848"><circle class="cls-1" cx="6.309" cy="0.9239" r="0.9239"/><circle class="cls-1" cx="0.9239" cy="0.9239" r="0.9239"/></symbol></defs><rect class="cls-2" x="166.791" y="166.4365" width="3.5078" height="493.1641"/><polygon class="cls-3" points="170.299 319.849 166.791 316.341 166.791 306.548 170.299 310.056 170.299 319.849"/><polygon class="cls-3" points="170.299 169.661 166.791 173.169 166.791 182.962 170.299 179.454 170.299 169.661"/><polygon class="cls-3" points="170.299 189.248 166.791 192.756 166.791 202.549 170.299 199.041 170.299 189.248"/><polygon class="cls-3" points="170.299 208.835 166.791 212.343 166.791 222.136 170.299 218.628 170.299 208.835"/><polygon class="cls-3" points="170.299 228.422 166.791 231.93 166.791 241.723 170.299 238.215 170.299 228.422"/><polygon class="cls-3" points="170.299 248.009 166.791 251.517 166.791 261.309 170.299 257.802 170.299 248.009"/><polygon class="cls-3" points="170.299 267.595 166.791 271.102 166.791 280.897 170.299 277.389 170.299 267.595"/><polygon class="cls-3" points="170.299 287.183 166.791 290.69 166.791 300.483 170.299 296.976 170.299 287.183"/><polygon class="cls-3" points="170.299 378.609 166.791 375.101 166.791 365.308 170.299 368.815 170.299 378.609"/><polygon class="cls-3" points="170.299 359.022 166.791 355.515 166.791 345.722 170.299 349.229 170.299 359.022"/><polygon class="cls-3" points="170.299 339.435 166.791 335.928 166.791 326.135 170.299 329.643 170.299 339.435"/><rect class="cls-2" x="178.4443" y="166.4365" width="3.5078" height="493.1641"/><polygon class="cls-4" points="181.952 319.849 178.444 316.341 178.444 306.548 181.952 310.056 181.952 319.849"/><polygon class="cls-4" points="181.952 169.661 178.444 173.169 178.444 182.962 181.952 179.454 181.952 169.661"/><polygon class="cls-4" points="181.952 189.248 178.444 192.756 178.444 202.549 181.952 199.041 181.952 189.248"/><polygon class="cls-4" points="181.952 208.835 178.444 212.343 178.444 222.136 181.952 218.628 181.952 208.835"/><polygon class="cls-4" points="181.952 228.422 178.444 231.93 178.444 241.723 181.952 238.215 181.952 228.422"/><polygon class="cls-4" points="181.952 248.009 178.444 251.517 178.444 261.309 181.952 257.802 181.952 248.009"/><polygon class="cls-4" points="181.952 267.595 178.444 271.102 178.444 280.897 181.952 277.389 181.952 267.595"/><polygon class="cls-4" points="181.952 287.183 178.444 290.69 178.444 300.483 181.952 296.976 181.952 287.183"/><polygon class="cls-4" points="181.952 378.609 178.444 375.101 178.444 365.308 181.952 368.815 181.952 378.609"/><polygon class="cls-3" points="170.299 398.134 166.791 394.627 166.791 384.833 170.299 388.34 170.299 398.134"/><polygon class="cls-4" points="181.952 398.134 178.444 394.627 178.444 384.833 181.952 388.34 181.952 398.134"/><polygon class="cls-3" points="170.299 417.659 166.791 414.152 166.791 404.358 170.299 407.865 170.299 417.659"/><polygon class="cls-4" points="181.952 417.659 178.444 414.152 178.444 404.358 181.952 407.865 181.952 417.659"/><polygon class="cls-3" points="170.299 437.184 166.791 433.677 166.791 423.883 170.299 427.391 170.299 437.184"/><polygon class="cls-4" points="181.952 437.184 178.444 433.677 178.444 423.883 181.952 427.391 181.952 437.184"/><polygon class="cls-3" points="170.299 456.709 166.791 453.202 166.791 443.408 170.299 446.916 170.299 456.709"/><polygon class="cls-4" points="181.952 456.709 178.444 453.202 178.444 443.408 181.952 446.916 181.952 456.709"/><polygon class="cls-3" points="170.299 476.252 166.791 472.744 166.791 462.95 170.299 466.458 170.299 476.252"/><polygon class="cls-4" points="181.952 476.252 178.444 472.744 178.444 462.95 181.952 466.458 181.952 476.252"/><polygon class="cls-3" points="170.299 495.794 166.791 492.286 166.791 482.492 170.299 486 170.299 495.794"/><polygon class="cls-4" points="181.952 495.794 178.444 492.286 178.444 482.492 181.952 486 181.952 495.794"/><polygon class="cls-3" points="170.299 515.336 166.791 511.828 166.791 502.034 170.299 505.542 170.299 515.336"/><polygon class="cls-4" points="181.952 515.336 178.444 511.828 178.444 502.034 181.952 505.542 181.952 515.336"/><polygon class="cls-3" points="170.299 534.878 166.791 531.37 166.791 521.576 170.299 525.084 170.299 534.878"/><polygon class="cls-4" points="181.952 534.878 178.444 531.37 178.444 521.576 181.952 525.084 181.952 534.878"/><polygon class="cls-3" points="170.299 554.42 166.791 550.912 166.791 541.118 170.299 544.626 170.299 554.42"/><polygon class="cls-4" points="181.952 554.42 178.444 550.912 178.444 541.118 181.952 544.626 181.952 554.42"/><polygon class="cls-3" points="170.299 573.962 166.791 570.454 166.791 560.66 170.299 564.168 170.299 573.962"/><polygon class="cls-4" points="181.952 573.962 178.444 570.454 178.444 560.66 181.952 564.168 181.952 573.962"/><polygon class="cls-3" points="170.299 593.504 166.791 589.996 166.791 580.202 170.299 583.71 170.299 593.504"/><polygon class="cls-4" points="181.952 593.504 178.444 589.996 178.444 580.202 181.952 583.71 181.952 593.504"/><polygon class="cls-3" points="170.299 613.046 166.791 609.538 166.791 599.744 170.299 603.252 170.299 613.046"/><polygon class="cls-4" points="181.952 613.046 178.444 609.538 178.444 599.744 181.952 603.252 181.952 613.046"/><polygon class="cls-3" points="170.299 632.588 166.791 629.08 166.791 619.286 170.299 622.794 170.299 632.588"/><polygon class="cls-4" points="181.952 632.588 178.444 629.08 178.444 619.286 181.952 622.794 181.952 632.588"/><polygon class="cls-3" points="170.299 652.13 166.791 648.622 166.791 638.828 170.299 642.336 170.299 652.13"/><polygon class="cls-4" points="181.952 652.13 178.444 648.622 178.444 638.828 181.952 642.336 181.952 652.13"/><polygon class="cls-4" points="181.952 359.022 178.444 355.515 178.444 345.722 181.952 349.229 181.952 359.022"/><polygon class="cls-4" points="181.952 339.435 178.444 335.928 178.444 326.135 181.952 329.643 181.952 339.435"/><path class="cls-5" d="M100.5971,19.0879A933.37,933.37,0,0,0,0,103.9609,933.2753,933.2753,0,0,0,111.5957,34.1787Z"/><path class="cls-6" d="M162.4951,164.5527c-48.9849-7.9551-84.73-38.82-79.8389-68.9414C86.0991,74.41,97.0068,50.1582,120.7319,33.8437L112.331,28.709C74.164,50.6064,62.5547,86.6416,62.5547,115.5537c0,32.668,42.9448,59.15,95.92,59.15,22.0254,0,42.3164-4.5781,58.5078-12.2744C201.1484,166.7519,182.2539,167.7617,162.4951,164.5527Z"/><path class="cls-7" d="M216.9824,162.43c16.1016-7.67,28.2139-18.461,33.8564-30.8662A151.4708,151.4708,0,0,0,87.101,119.8183c11.0337,20.9746,39.6988,38.9375,75.3941,44.7344,19.7588,3.209,38.6533,2.1992,54.4873-2.123Z"/><path class="cls-6" d="M298.5058,191.6933A151.5821,151.5821,0,0,0,187.167,103.65,151.5821,151.5821,0,0,0,298.5058,191.6933Z"/><path class="cls-6" d="M99.7632,23.0547a13.26,13.26,0,1,1,13.26,13.26A13.26,13.26,0,0,1,99.7632,23.0547Z"/><use width="7.2328" height="1.8478" transform="translate(107.2121 20.2379)" xlink:href="#Eyes"/><path class="cls-3" d="M113.4931,15.4316c4.9356,0,9.0215-1.47,9.7217-3.3838l-.2324-.2881-11.438,3.5938C112.1743,15.4043,112.8261,15.4316,113.4931,15.4316Z"/><path class="cls-2" d="M111.5444,15.3535l11.438-3.5938L120.853,9.1211l-15.1509,4.7607A15.785,15.785,0,0,0,111.5444,15.3535Z"/><path class="cls-4" d="M118.7241,6.4824,104.709,10.8857l-.9371,1.1611a3.8046,3.8046,0,0,0,1.93,1.835L120.853,9.1211Z"/><polygon class="cls-2" points="104.709 10.886 118.724 6.482 116.595 3.844 108.284 6.455 104.709 10.886"/><polygon class="cls-3" points="108.284 6.455 116.595 3.844 114.466 1.206 111.859 2.024 108.284 6.455"/><polygon class="cls-2" points="113.493 0 111.859 2.024 114.466 1.206 113.493 0"/><path class="cls-2" d="M105.7021,33.7666q-.5112,0-1.0137-.0274a.25.25,0,0,1-.2353-.2636c.0078-.1377.1157-.2159.2637-.2364q.4884.0279.9853.0274c8.5567,0,15.5176-6.086,15.5176-13.5674a12.0744,12.0744,0,0,0-1.6655-6.1211.25.25,0,1,1,.4326-.25,12.561,12.561,0,0,1,1.7329,6.3711C121.72,27.456,114.5341,33.7666,105.7021,33.7666Z"/><path class="cls-1" d="M114.94,20.94a1.4175,1.4175,0,1,1-1.417-1.418A1.4169,1.4169,0,0,1,114.94,20.94Z"/><path class="cls-1" d="M109.5542,20.94a1.4175,1.4175,0,1,1-1.417-1.418A1.4169,1.4169,0,0,1,109.5542,20.94Z"/></svg>