<svg id="Layer_1" data-name="Layer 1" xmlns="http://www.w3.org/2000/svg" viewBox="0 0 452 113" width="452px" height="113px"><defs><style>.cls-1{fill:#cbe2e7;}</style></defs><path class="cls-1" d="M302.3,54.05H262.64a4.26,4.26,0,0,1-4.22-5C260.5,37.37,269.82,28,282.47,28s22,9.41,24,21.1a4.27,4.27,0,0,1-4.22,5m-19.83-29h0a29,29,0,0,0-29,29V76.38A6.66,6.66,0,0,0,260.14,83h44.65a6.67,6.67,0,0,0,6.67-6.66V54.05a29,29,0,0,0-29-29"/><path class="cls-1" d="M418.18,72.81a2.21,2.21,0,0,1-1.82-2.36,2.14,2.14,0,0,1,2.49-1.29,2.17,2.17,0,0,1,1.61,2.42c-.14,1.27-1.46,1.37-2.28,1.23m6,8.92a13.33,13.33,0,0,0-.72-4.58,25.3,25.3,0,0,0,.13-3.23,10.74,10.74,0,0,0-2.79-7.13c-1.86-2.38-4.13-3.37-7.46-4.52-2.77-.94-11.31-3.91-15.34-5.6-12.7-5.31-15.83-10.09-16.09-18.45a60.49,60.49,0,0,1,2.18-16.9s.36-1.05-.73-.44-5.78,3-5.78,3-3.76,7.91-4,8.82-.83,2.07-4.38,9.84a20.55,20.55,0,0,0-1.93,8.9c.12,2.33.28,6.4,1.93,9.92a50.55,50.55,0,0,0,6,9.21l.62,8.53.26,7.33.17.38,1.95-.2.49-.51a8,8,0,0,1-.66-3.37c0-2.09-1-10.77-1-10.77a12.88,12.88,0,0,0,1.87,1.68l2.51,1.52s.91,4.49,1,5.49,1.27,5.62,1.27,5.62l.91.46,1-.1.29-.47s-1-3.54-1.34-5.35-1-3.48-1.17-4.62a17,17,0,0,0,5.74,2.39,13.39,13.39,0,0,0,8.27-.4c2.56-.8,10.8-3.39,13.39-2.91a20.28,20.28,0,0,1,9.69,4,17,17,0,0,1,1.69,1.83c.69.82,1.92,2.15,2,.67"/><path class="cls-1" d="M55.82,29.6A27.87,27.87,0,0,0,30.2,68.44c3.19-5.73,6.87-12.76,8.32-15.54,2.4-4.6,4.34-7.68,8.21-9.87,3.07-1.73,6.32-3.23,11-2.49a36.38,36.38,0,0,1,4.67.89,19.79,19.79,0,0,1,6.83,0c2.14.45-.07,1.93-1.41,2.77a25.41,25.41,0,0,0-3,2.05c-4.77,4.31-6.62,9.56-7.9,13.23s.69,16.23,1.29,20.13a25.6,25.6,0,0,1,.4,5.63,27.87,27.87,0,0,0-2.74-55.6Z"/><path class="cls-1" d="M54.92,48.21c.38-1.16.52-3.11-1.3-3.59a3.15,3.15,0,0,0-2.54,5.72C52.88,51,54.54,49.38,54.92,48.21Z"/><path class="cls-1" d="M184.78,78.16c-2.79-2.85-11.77-12-15.5-13.24s-9.12-2.87-15.49-1.62a26.14,26.14,0,0,0-3.5,1.21c-1.49.58-4,1.47-3.1-.53a20.06,20.06,0,0,1,4.17-5.5,37,37,0,0,1,2.11-4.32c2.23-4.22,5.41-5.95,8.67-7.38,4.12-1.81,7.79-1.51,13-.66,3.57.58,13.41,2.16,20.33,3A27.88,27.88,0,1,0,186,79.39Z"/><path class="cls-1" d="M159.26,53.32c-.72,1.76,1,2.82,2.12,3.22s3.45,0,4-1.81a3.18,3.18,0,0,0-6.16-1.41Z"/></svg>