<svg id="Layer_1" data-name="Layer 1" xmlns="http://www.w3.org/2000/svg" width="772.6" height="292" viewBox="0 0 772.6 292"><defs><style>.cls-1{fill:#fff;}</style></defs><g id="Layer_2_copy" data-name="Layer 2 copy"><path class="cls-1" d="M132.3,153.1s15.1.1,16.7,0,6.7-.6,6.7-.6l-.3,3.8s-.9,14.9-1,23.4.9,49.7,2.5,56.6,1.2,4.3,1.2,4.3l-26.6-.2,1.3-6.7s-4.8,2.9-7.9,4.4-3.6,3.2-10.7,2.7-13-.4-17.2-2.6a30.5826,30.5826,0,0,1-11.1-8.4c-4.4-5.1-10-11.3-11.8-18.3s-2.6-32.1,4.5-43.1,20-17.2,20-17.2,10.1-1.8,16.7,0a154.1214,154.1214,0,0,1,16,6Zm-27.8,26.5c-2,1.8-3.9,7.4-5,8.8s-.4,4.3-.1,5.2,4.1,12.4,5.8,15.5,3.9,3.5,3.9,3.5,14.2-1.6,16.2-2,1.9-1.7,1.9-1.7-1.8-28.5-2.1-29.3a3.7144,3.7144,0,0,0-3.3-2c-1.7,0-14,.6-14,.6a8.0566,8.0566,0,0,0-3.3,1.4Z"/><path class="cls-1" d="M175.1,144.2l16.2-1.2,1.6,6.2a63.1733,63.1733,0,0,1,8.5-2.4l18.6-2.7s7.3,1.2,23.5,12.4c1,.7,2.9,4.2,3.6,5.9s6.9,14.8,7.1,23.3a176.3227,176.3227,0,0,1-1.2,23c-.6,3.5-.5,7.7-7,11s-30.9,11.8-41.9,11.6l-2.5-.1s2.2,18.5,2.4,22.1c.3,3.5.7,17,1,28.4l-23.1,4.9s-1.2,1.5-1.5-2-1.9-82.4-1.9-82.4l-2-41.3Zm28.5,65.3,18.3-9c2.9-4.3,2.7-11.5.3-17.3s-17.9-18.1-17.9-18.1a8.0835,8.0835,0,0,0-2.7,1.1Z"/><path class="cls-1" d="M291.9,191.5c-.3,1.4-.1,15.1.6,17.6s4.6,7.5,7.8,11.5c2,2.6,16,.3,16,.3,2.6-1.1,12.6-6.4,14.2-7.5s5.4.1,5.4.1,18.6,7.5,19.5,8a11.7817,11.7817,0,0,1,1.9,1.1s-13.3,12.7-17.5,14.7c-8.1,4-19.5,6.4-32.1,5.4s-29.7-15.1-30.6-16-16.4-16.2-9.7-38.3,16.9-29.8,19.8-32.3,20-7.5,22.2-7.6,17.4,1.6,20.1,1.9a17.502,17.502,0,0,1,8.6,4c2.5,2.1,11.5,10.6,12.3,12.2a67.8444,67.8444,0,0,1,3,9c.8,2.7,1.5,17.1,1.5,17.1l-44.3-1.6L292,189.2A4.446,4.446,0,0,1,291.9,191.5Zm9.7-12.4,20.2-.4,10.9-.3s-6.8-5.4-8.4-7.1-8.6-3-10.5-2.8-8.6,5.1-10.4,7.1a5.8864,5.8864,0,0,0-1.8,3.5Z"/><path class="cls-1" d="M369.4,143.4l15.5-1.5a36.68,36.68,0,0,1,5.8,0,1.7215,1.7215,0,0,1,1.2,1.5s.2,4,1.2,5.3c0,0,5.3-6.8,8.8-8.5s2.8-1.5,5.2-2.2,14.5-3.7,16.8-3.6c0,0,3.7-.1,5.3,1.4s12.8,8,12.8,8l-6.3,26.5-1,1s-6-9.2-9.7-11.8a20.209,20.209,0,0,0-6.5.5c-3.3.8-7.2,1.3-8.5,2a47.7074,47.7074,0,0,0-7.1,6.3s-5.8,6.3-6.1,11.7l2.7,51.7V244s-.6.5-2.6,0-23.2-8.4-23.2-8.4-1-16.5-1-18.3-2.5-43.5-2.5-43.5-.8-22.8-1-23.2a53.972,53.972,0,0,1-1-5.8A2.8791,2.8791,0,0,1,369.4,143.4Z"/><path class="cls-1" d="M680.7,130.8c4.7,2.2,10.9,7,12.6,8.4s2.1,1.5,2.1,2a5.74,5.74,0,0,1-1.6,2.7c-.9.8-10.2,8.8-12.4,11s-2.8,1.9-2.8,1.9-1.9-2.4-8.2-4.6-9.5-.4-12.4,0-8.5,3.9-10.8,6-10.8,11.2-10.8,11.2c.6,2.1,1.5,24.2,1.6,25.8s1.1,31.9,1.1,32.8a7.3225,7.3225,0,0,1-.8,2.5s-21.6,8-22.4,8.6-.6-1.4-.6-2-.1-23.6,0-26.4.7-38.5.6-42.4-1.1-28.4-1.1-29.3c0-.7,1.1-.6,1.1-.6s14.6-1.8,16.1-1.9,4.2-.5,4.8-.6c.5,0,0,1.6,0,1.6a14.4729,14.4729,0,0,0-.1,3.6c.1,1.8,1.1,6.5,1.1,6.5a81.8555,81.8555,0,0,1,7-11.3c.6-.5,3.8-2.2,12.1-5,0,0,10.5-3.2,13.9-3.2C672.8,127.9,680.7,130.8,680.7,130.8Z"/><path class="cls-1" d="M0,69.5s22.8.6,28,.5,17.9.8,20.3,1.4S61,74.6,68.9,79.2A200.9759,200.9759,0,0,1,90.3,94.3c1.1,1.1,4.2,10.4,4.2,12.2s-1.1,23.8-2.2,25.6c-1,1.8-15.9,20.3-25.7,26.4s-39.3,11.3-39.3,11.3l10.5,77.7a30.3409,30.3409,0,0,1-4.2-.6L2.1,236.3.7,158.9Zm28.4,70.1s28.4-11.1,29.3-19.2-1.4-12.4-3-14S44,100.7,41.9,99.9s-14.3-4.3-14.3-4.3Z"/><path class="cls-1" d="M456.2,71.2s6.2-.2,7.5,0,14.3,2.2,16.5,2.3,21.5,6.2,33.2,11.7a90.8541,90.8541,0,0,1,8.7,4.7c.7.5,16.7,11.1,17.2,34.7a21.9,21.9,0,0,1-4.3,13.7s-10.2,11.8-20.2,17c0,0,8.2,3.5,12.2,6.8s15.3,12.4,19.3,20.3c2.5,4.9,2.5,12.3,2.5,13.2s-4,19.3-10.5,25.2-17,8.7-18.2,9-9.5,2.5-13.3,3.2-24.3,0-24.3,0l-27.2,2s-.7-29.2-.7-32.9.7-46.9.7-48.5.7-49.9.7-55.9S456.2,71.2,456.2,71.2Zm21.9,22.3s1.5,25.3,1.7,27.7,1.2,15,1.2,15,9.2-3,14.2-6.3,9.8-8.2,10.3-10.5-.3-9-.8-11.3-4.1-5.4-5.1-6.8-6.9-4.8-6.9-4.8c-2.2-.8-14.5-4.1-14.5-4.1Zm1.5,94.4c0,1.3,1,22.2,1,22.2,2.7.2,21.5-1.2,25-2s8.3-8.3,8.2-9.8-5.7-15.3-7.2-17.8a14.3944,14.3944,0,0,0-4.9-4.3s-20.5-6.2-21.1-6.2-1,1.5-1,1.5Z"/><path class="cls-1" d="M594.2,144.5s4.8,71.2,4.8,72.7,1.8,17.7,1.8,17.7-31.8-7.6-33.4-8.2c-.8-.3-.6-3.5-.6-3.5s1.2-18.5,1.5-21.7,2.7-46.3,2.7-46.3v-13l-.3-.8V125.6l-.5-18.5a110.1647,110.1647,0,0,1-21.3-10.3c-7-4.7-11.8-12-14.7-16.2s-5.5-11.3-6.4-18.6c-2.1-18.3-2.4-21.2-2.9-23.1S522.5,18,522.5,18s6-9.7,7.3-12,1.8,0,1.8,0,4.6,18,14.9,33.7c9.8,15.2,21,20.5,50.3,16.1,9.3-1.4,28.5-5.5,34.6-6.8,7.4-1.6,12.7-2.3,18.8,0,4.8,1.8,9.6,4.1,13.1,10,1.2,2,2.4,4,3.4,6.1a29.9265,29.9265,0,0,1,6.5,7.7c1.5,2.8-2.2,1.7-4.5,1a44.45,44.45,0,0,0-5.2-1.5c-9.3-1.3-17,1.5-22.3,3.5s-17.7,16-21.5,20.3-7,7.5-14.8,10a37.7081,37.7081,0,0,1-13.3,2c.3,2,1.8,18,2,22s1.2,13.3,1.2,13.3Zm-19-11a15.2241,15.2241,0,0,0,1.2,7.3l11.3,3s.2-12.2,0-14.3-.8-21-.8-21h-6.3a31.0057,31.0057,0,0,1-5.3-1C575.2,107.5,575.4,129,575.2,133.5Zm71-72.7c1,2.6,4.3,3,6,2.3s4-2.3,2.8-4.8a4.5525,4.5525,0,0,0-6-2.5A4.6388,4.6388,0,0,0,646.2,60.8Z"/><path class="cls-1" d="M747.8,91a1.7142,1.7142,0,0,1,1.7-1.3c1.3,0,20.3-5.8,20.3-5.8a4.8449,4.8449,0,0,0,0,1.7c.2,1.3.7,48.5.7,56.7s1.2,43.7,1.3,49,.8,43.7.8,45.8v3.5a20.4542,20.4542,0,0,1-3.5,0c-1.5-.2-14.7-.4-15.7.1s-1-2.2-1-3.2-.5-6-.5-7.2-.2-8-.2-8c0,.6-3,6.3-4.2,7.8-2.5,3.1-1.7,2.5-5.7,5.8s-17.5,3.9-24.6,1.6S695,226.3,693.4,224c-6.8-9.5-9.9-23.1-10.2-28.5-.5-10.8,1.4-19.8,1.4-21s2.7-6.7,3.1-7.7,13.2-16,15.3-17,8.3-3.2,11-3.2,25.7,1.5,29.7,2,4.7,2.5,4.7,2.5-.3-15.3-.3-16.8-.8-35.2-.8-36.8S747.8,91,747.8,91Zm-24.5,79.8c-2.8-.5-12.5.2-16.5,9.2s-.5,24.5,1,26.8,9.3,7.8,10.3,8.2c3.9,1.5,13,1.5,11,1.5-.9,0,7-.4,9.7-3,.7-.7,0-11.5,0-14.2V175.5s-12.7-4.1-15.5-4.7Z"/></g></svg>