<?xml version="1.0" encoding="utf-8"?>
<!-- Generator: Adobe Illustrator 25.2.3, SVG Export Plug-In . SVG Version: 6.00 Build 0)  -->
<svg version="1.1" id="Layer_1" xmlns="http://www.w3.org/2000/svg" xmlns:xlink="http://www.w3.org/1999/xlink" x="0px" y="0px"
	 viewBox="0 0 182.22 47.56" style="enable-background:new 0 0 182.22 47.56;" xml:space="preserve">
<style type="text/css">
	.st0{clip-path:url(#SVGID_2_);}
	.st1{fill:#6E5F77;}
	.st2{clip-path:url(#SVGID_4_);}
</style>
<g>
	<defs>
		<rect id="SVGID_1_" x="-103.69" y="-18.4" width="366.76" height="121.57"/>
	</defs>
	<clipPath id="SVGID_2_">
		<use xlink:href="#SVGID_1_"  style="overflow:visible;"/>
	</clipPath>
	<g class="st0">
		<path class="st1" d="M10.1,11.15c0.11,0.31,0.21,0.67,0.29,1.05c0.08,0.39,0.11,0.7,0.09,0.94l1.18-0.07l-0.04,0.8H7.69l0.02-0.6
			c0.73-0.01,1.09-0.31,1.09-0.91c0-0.21-0.05-0.48-0.15-0.82L8.12,9.84L3.47,9.95L2.74,11.9c-0.18,0.47-0.37,0.89-0.56,1.25
			l1.36-0.07l-0.04,0.8H0.18l0.02-0.6c0.42-0.01,0.77-0.2,1.04-0.56s0.57-0.93,0.88-1.71l4.1-10.19h0.4L10.1,11.15z M5.98,3.34
			L5.22,5.38C5.07,5.73,4.7,6.7,4.11,8.28L3.76,9.17h4.16C7.23,7.01,6.6,5.06,6.01,3.34H5.98z"/>
		<path class="st1" d="M20.45,5.25c0.32,0.44,0.48,1,0.48,1.71c0,0.81-0.12,1.97-0.34,3.49c-0.13,0.96-0.2,1.59-0.2,1.89
			c0,0.27,0.03,0.47,0.1,0.62c0.07,0.15,0.2,0.22,0.39,0.22c0.23,0,0.47-0.14,0.71-0.43c0.24-0.28,0.45-0.73,0.62-1.33l0.51,0.13
			c-0.06,0.34-0.19,0.71-0.39,1.1s-0.47,0.73-0.8,1.02s-0.72,0.43-1.17,0.43c-0.54,0-0.93-0.14-1.14-0.43
			c-0.22-0.28-0.33-0.72-0.33-1.32c0-0.45,0.08-1.25,0.24-2.4c0.22-1.48,0.33-2.6,0.33-3.38c0-0.28-0.06-0.53-0.19-0.76
			c-0.13-0.23-0.35-0.35-0.66-0.35c-0.53,0-1.08,0.4-1.63,1.21s-1.02,1.8-1.39,2.98c-0.37,1.18-0.55,2.27-0.55,3.28
			c0,0.23,0.01,0.55,0.04,0.96h-1.53c-0.01-0.11-0.02-0.27-0.02-0.47c0-0.29,0.03-0.7,0.08-1.22c0.05-0.52,0.14-1.2,0.25-2.05
			c0-0.07,0.01-0.19,0.04-0.36c0.01-0.16,0.03-0.32,0.05-0.49c0.02-0.17,0.04-0.34,0.05-0.51c0.08-0.74,0.15-1.28,0.18-1.62
			c0.04-0.34,0.05-0.62,0.05-0.84c0-0.25-0.03-0.45-0.1-0.6c-0.07-0.15-0.2-0.22-0.39-0.22c-0.23,0-0.47,0.15-0.71,0.44
			c-0.24,0.29-0.45,0.73-0.62,1.33l-0.51-0.11c0.06-0.34,0.19-0.71,0.39-1.11c0.2-0.4,0.47-0.74,0.8-1.03s0.72-0.43,1.17-0.43
			c0.91,0,1.36,0.62,1.36,1.87c0,0.35-0.03,0.74-0.1,1.15c-0.07,0.42-0.13,0.79-0.19,1.12h0.05c0.58-1.55,1.16-2.63,1.73-3.23
			c0.57-0.6,1.19-0.91,1.84-0.91C19.63,4.59,20.13,4.81,20.45,5.25z"/>
		<path class="st1" d="M34.64,5.1c0.48,0.34,0.73,0.87,0.73,1.58c0,0.9-0.54,1.59-1.62,2.09c-1.08,0.5-2.33,0.82-3.74,0.98
			c0,1.14,0.17,1.99,0.51,2.56s0.86,0.85,1.56,0.85c0.56,0,1.1-0.18,1.62-0.55c0.52-0.37,0.97-0.92,1.36-1.64l0.6,0.35
			c-0.51,0.96-1.08,1.66-1.71,2.1c-0.63,0.44-1.36,0.66-2.18,0.66c-1.11,0-1.95-0.35-2.52-1.04c-0.56-0.7-0.84-1.66-0.84-2.88
			c0-0.98,0.17-1.89,0.5-2.73c0.33-0.84,0.83-1.52,1.5-2.04c0.67-0.52,1.47-0.78,2.42-0.78C33.55,4.59,34.16,4.76,34.64,5.1z
			 M30.77,6.34c-0.42,0.75-0.67,1.67-0.74,2.76c1.05-0.15,1.96-0.44,2.71-0.87c0.75-0.44,1.13-0.98,1.13-1.63
			c0-0.4-0.11-0.73-0.34-0.99c-0.22-0.26-0.54-0.39-0.95-0.39C31.8,5.21,31.2,5.59,30.77,6.34z"/>
		<path class="st1" d="M42.81,4.88c0.42,0.19,0.74,0.44,0.98,0.76c0.24,0.32,0.35,0.68,0.35,1.08c0,0.28-0.07,0.5-0.22,0.65
			c-0.15,0.16-0.34,0.24-0.58,0.24s-0.43-0.08-0.55-0.24c-0.13-0.16-0.19-0.32-0.19-0.49c0-0.29,0.08-0.52,0.24-0.69
			c-0.06-0.33-0.22-0.57-0.48-0.73c-0.26-0.16-0.58-0.24-0.95-0.24c-0.96,0-1.65,0.45-2.08,1.34c-0.43,0.9-0.65,1.93-0.65,3.11
			c0,1.21,0.2,2.1,0.59,2.66c0.39,0.56,0.94,0.84,1.63,0.84c0.53,0,1.05-0.18,1.54-0.54c0.5-0.36,0.91-0.94,1.24-1.75l0.64,0.31
			c-0.44,1.01-0.98,1.73-1.62,2.19c-0.64,0.45-1.34,0.68-2.11,0.68c-1.1,0-1.96-0.33-2.58-0.99s-0.93-1.66-0.93-2.99
			c0-0.85,0.16-1.7,0.48-2.54c0.32-0.85,0.81-1.55,1.46-2.12c0.65-0.56,1.45-0.84,2.4-0.84C41.92,4.59,42.39,4.69,42.81,4.88z"/>
		<path class="st1" d="M48.65,1.45c-0.15,0.85-0.24,1.45-0.27,1.8c-0.19,1.42-0.38,3.06-0.55,4.93c-0.18,1.87-0.26,3.22-0.26,4.04
			c0,0.3,0.03,0.54,0.09,0.7c0.06,0.16,0.19,0.25,0.4,0.25c0.23,0,0.47-0.14,0.71-0.43c0.24-0.28,0.45-0.73,0.62-1.33l0.51,0.13
			c-0.06,0.34-0.19,0.71-0.38,1.1s-0.46,0.73-0.79,1.02s-0.72,0.43-1.17,0.43c-0.51,0-0.88-0.13-1.11-0.4s-0.35-0.67-0.35-1.22
			c0-0.8,0.11-2.27,0.32-4.41c0.21-2.14,0.43-4.06,0.66-5.76l0.16-0.98l-1.29,0.07l0.09-0.73c0.71,0,1.23-0.04,1.54-0.13
			c0.31-0.08,0.57-0.21,0.76-0.36h0.51L48.65,1.45z"/>
		<path class="st1" d="M57.04,5.1c0.48,0.34,0.73,0.87,0.73,1.58c0,0.9-0.54,1.59-1.62,2.09c-1.08,0.5-2.33,0.82-3.74,0.98
			c0,1.14,0.17,1.99,0.51,2.56s0.86,0.85,1.56,0.85c0.56,0,1.1-0.18,1.62-0.55c0.52-0.37,0.97-0.92,1.36-1.64l0.6,0.35
			c-0.51,0.96-1.08,1.66-1.71,2.1c-0.63,0.44-1.36,0.66-2.18,0.66c-1.11,0-1.95-0.35-2.52-1.04c-0.56-0.7-0.84-1.66-0.84-2.88
			c0-0.98,0.17-1.89,0.5-2.73c0.33-0.84,0.83-1.52,1.5-2.04c0.67-0.52,1.47-0.78,2.42-0.78C55.95,4.59,56.55,4.76,57.04,5.1z
			 M53.17,6.34c-0.42,0.75-0.67,1.67-0.74,2.76c1.05-0.15,1.96-0.44,2.71-0.87c0.75-0.44,1.13-0.98,1.13-1.63
			c0-0.4-0.11-0.73-0.34-0.99c-0.22-0.26-0.54-0.39-0.95-0.39C54.19,5.21,53.59,5.59,53.17,6.34z"/>
		<path class="st1" d="M65.2,4.88c0.42,0.19,0.74,0.44,0.98,0.76c0.24,0.32,0.35,0.68,0.35,1.08c0,0.28-0.07,0.5-0.22,0.65
			c-0.15,0.16-0.34,0.24-0.58,0.24s-0.43-0.08-0.55-0.24c-0.13-0.16-0.19-0.32-0.19-0.49c0-0.29,0.08-0.52,0.24-0.69
			c-0.06-0.33-0.22-0.57-0.48-0.73c-0.26-0.16-0.58-0.24-0.95-0.24c-0.96,0-1.65,0.45-2.08,1.34c-0.43,0.9-0.65,1.93-0.65,3.11
			c0,1.21,0.2,2.1,0.59,2.66c0.39,0.56,0.94,0.84,1.63,0.84c0.53,0,1.05-0.18,1.54-0.54c0.5-0.36,0.91-0.94,1.24-1.75l0.64,0.31
			c-0.44,1.01-0.98,1.73-1.62,2.19c-0.64,0.45-1.34,0.68-2.11,0.68c-1.1,0-1.96-0.33-2.58-0.99s-0.93-1.66-0.93-2.99
			c0-0.85,0.16-1.7,0.48-2.54c0.32-0.85,0.81-1.55,1.46-2.12c0.65-0.56,1.45-0.84,2.4-0.84C64.32,4.59,64.78,4.69,65.2,4.88z"/>
		<path class="st1" d="M70.97,4.8h2.89L73.8,5.49L70.9,5.52l-0.13,1.16c-0.27,2.3-0.4,3.93-0.4,4.89c0,0.47,0.05,0.85,0.16,1.14
			s0.34,0.44,0.69,0.44c0.63,0,1.2-0.42,1.71-1.27l0.47,0.31c-0.38,0.64-0.77,1.12-1.17,1.43c-0.41,0.31-0.89,0.46-1.44,0.46
			c-0.67,0-1.15-0.2-1.44-0.6c-0.3-0.4-0.44-0.91-0.44-1.54c0-0.7,0.04-1.63,0.13-2.77c0.08-1.14,0.2-2.35,0.35-3.62l-1.62,0.02
			l0.05-0.76c0.73,0,1.31-0.21,1.76-0.65c0.45-0.43,0.79-1.07,1.04-1.92h0.69L70.97,4.8z"/>
		<path class="st1" d="M77.52,5.1c0.26,0.34,0.39,0.8,0.39,1.38c0,0.47-0.1,1.3-0.31,2.49c-0.12,0.76-0.21,1.4-0.28,1.92
			c-0.07,0.52-0.1,1.02-0.1,1.52c0,0.51,0.19,0.76,0.56,0.76c0.23,0,0.47-0.15,0.71-0.44c0.24-0.29,0.45-0.73,0.62-1.33l0.51,0.11
			c-0.15,0.65-0.41,1.24-0.78,1.77c-0.38,0.53-0.87,0.79-1.47,0.79c-1.09,0-1.64-0.57-1.64-1.71c0-0.47,0.03-0.93,0.09-1.38
			c0.06-0.45,0.15-1,0.27-1.67c0.12-0.74,0.21-1.31,0.26-1.72c0.05-0.41,0.08-0.83,0.08-1.28c0-0.21-0.04-0.39-0.12-0.56
			c-0.08-0.17-0.21-0.25-0.39-0.25c-0.23,0-0.47,0.15-0.71,0.44c-0.24,0.29-0.45,0.73-0.62,1.33l-0.51-0.11
			c0.11-0.59,0.36-1.17,0.75-1.73c0.39-0.56,0.9-0.84,1.54-0.84C76.88,4.59,77.26,4.76,77.52,5.1z M78.11,0.96
			c0.18,0.19,0.27,0.44,0.27,0.75s-0.1,0.55-0.29,0.74c-0.19,0.19-0.42,0.28-0.69,0.28c-0.27,0-0.49-0.09-0.68-0.28
			c-0.19-0.19-0.28-0.43-0.28-0.74s0.1-0.55,0.29-0.75c0.19-0.19,0.42-0.29,0.69-0.29C77.7,0.67,77.93,0.77,78.11,0.96z"/>
		<path class="st1" d="M86.29,4.88c0.42,0.19,0.74,0.44,0.98,0.76c0.24,0.32,0.35,0.68,0.35,1.08c0,0.28-0.07,0.5-0.22,0.65
			c-0.15,0.16-0.34,0.24-0.58,0.24s-0.43-0.08-0.55-0.24c-0.13-0.16-0.19-0.32-0.19-0.49c0-0.29,0.08-0.52,0.24-0.69
			c-0.06-0.33-0.22-0.57-0.48-0.73c-0.26-0.16-0.58-0.24-0.95-0.24c-0.96,0-1.65,0.45-2.08,1.34c-0.43,0.9-0.65,1.93-0.65,3.11
			c0,1.21,0.2,2.1,0.59,2.66c0.39,0.56,0.94,0.84,1.63,0.84c0.53,0,1.05-0.18,1.54-0.54c0.5-0.36,0.91-0.94,1.24-1.75l0.64,0.31
			c-0.44,1.01-0.98,1.73-1.62,2.19c-0.64,0.45-1.34,0.68-2.11,0.68c-1.1,0-1.96-0.33-2.58-0.99s-0.93-1.66-0.93-2.99
			c0-0.85,0.16-1.7,0.48-2.54C81.36,6.71,81.85,6,82.5,5.44c0.65-0.56,1.45-0.84,2.4-0.84C85.41,4.59,85.87,4.69,86.29,4.88z"/>
	</g>
	<g class="st0">
		<path class="st1" d="M96.06,13.52c-0.69-0.38-1.24-0.93-1.62-1.64c-0.39-0.71-0.58-1.56-0.58-2.53c0-0.88,0.18-1.72,0.53-2.5
			s0.89-1.42,1.6-1.92s1.57-0.74,2.57-0.74c0.49,0,0.98,0.07,1.48,0.2c0.5,0.13,0.94,0.31,1.32,0.55l-0.05-0.65h0.74v3.1h-0.49
			c-0.06-0.83-0.36-1.48-0.9-1.95c-0.54-0.47-1.21-0.7-2.01-0.7c-0.64,0-1.23,0.19-1.75,0.55c-0.53,0.37-0.95,0.88-1.26,1.54
			c-0.31,0.65-0.47,1.39-0.47,2.21c0,0.85,0.15,1.61,0.46,2.27c0.31,0.67,0.74,1.19,1.29,1.57c0.55,0.38,1.18,0.57,1.88,0.57
			c0.39,0,0.79-0.06,1.2-0.17c0.41-0.11,0.78-0.28,1.12-0.51V9.8l-0.95,0.05v-0.6h3.06v0.45c-0.43,0-0.7,0.17-0.81,0.49
			c-0.11,0.33-0.16,0.7-0.16,1.12v2.07h-0.37c-0.38,0-0.87,0.12-1.46,0.35c-0.27,0.11-0.59,0.19-0.96,0.26
			c-0.37,0.06-0.71,0.09-1.01,0.09C97.56,14.09,96.76,13.9,96.06,13.52z"/>
		<path class="st1" d="M104.52,13.43c0.22,0,0.41-0.05,0.54-0.16c0.14-0.1,0.25-0.24,0.33-0.41c0.08-0.17,0.19-0.42,0.3-0.75
			l0.13-0.38l2.79-7.59h0.32l3.02,7.7c0.1,0.24,0.18,0.51,0.26,0.79s0.1,0.52,0.09,0.7l0.92-0.05v0.6h-3.1v-0.45
			c0.53-0.01,0.8-0.23,0.8-0.65c0-0.17-0.04-0.38-0.14-0.64l-0.47-1.27l-3.52,0.08c-0.13,0.37-0.29,0.85-0.47,1.45
			c-0.09,0.3-0.2,0.61-0.34,0.93l1.06-0.05v0.6h-2.53V13.43z M110.14,10.37l-0.96-2.59l-0.61-1.67h-0.03l-0.57,1.53l-0.73,2.06
			l-0.23,0.66H110.14z"/>
		<path class="st1" d="M116.65,13.43c0.39-0.02,0.64-0.13,0.75-0.32c0.11-0.2,0.17-0.51,0.17-0.92v-0.42l0.01-6.86l-1.39,0.01
			c-0.56,0-0.96,0.19-1.2,0.56c-0.24,0.38-0.36,0.97-0.36,1.78h-0.5l0.08-2.86h7.89l0.08,2.86h-0.51c-0.01-0.57-0.07-1.02-0.17-1.36
			c-0.1-0.34-0.28-0.59-0.53-0.76c-0.25-0.17-0.6-0.25-1.06-0.25h-1.15l-0.01,7.38c0,0.48-0.01,0.83-0.04,1.07l1.12-0.05v0.6h-3.18
			V13.43z"/>
		<path class="st1" d="M124.33,13.43c0.32-0.01,0.54-0.08,0.68-0.22c0.13-0.14,0.21-0.3,0.23-0.48c0.02-0.18,0.03-0.51,0.03-0.97
			V5.92c0-0.38,0.01-0.7,0.04-0.97L124.33,5V4.4h3.05v0.45c-0.32,0.01-0.54,0.08-0.68,0.22c-0.13,0.14-0.21,0.3-0.23,0.48
			c-0.02,0.19-0.03,0.51-0.03,0.97v2.25h4.85V5.92c0-0.38,0.01-0.7,0.04-0.97L130.35,5V4.4h3.05v0.45
			c-0.32,0.01-0.54,0.08-0.68,0.22s-0.21,0.3-0.23,0.48c-0.02,0.19-0.03,0.51-0.03,0.97v5.75c0,0.48-0.01,0.83-0.04,1.07l0.97-0.05
			v0.6h-3.05v-0.45c0.32-0.01,0.54-0.08,0.68-0.22c0.14-0.14,0.21-0.3,0.23-0.48c0.02-0.18,0.03-0.51,0.03-0.97V9.3l-4.85,0.05v2.91
			c0,0.48-0.01,0.83-0.04,1.07l0.97-0.05v0.6h-3.05V13.43z"/>
		<path class="st1" d="M135.97,13.43c0.32-0.01,0.54-0.08,0.68-0.22c0.13-0.14,0.21-0.3,0.23-0.48c0.02-0.18,0.03-0.51,0.03-0.97
			V5.92c0-0.38,0.01-0.7,0.04-0.97L135.97,5V4.4h6.51l0.07,2.37h-0.45c0-0.74-0.16-1.25-0.48-1.52s-0.77-0.4-1.35-0.38l-1.16,0.03
			c-0.33,0.01-0.56,0.07-0.7,0.18c-0.14,0.11-0.24,0.27-0.27,0.47c-0.04,0.2-0.05,0.52-0.05,0.95v2.17l2.54,0.01l-0.09-1.16h0.6
			v2.84h-0.45c0-0.33-0.04-0.59-0.12-0.77c-0.08-0.18-0.21-0.29-0.37-0.35c-0.17-0.06-0.4-0.09-0.7-0.09l-0.42,0.01l-0.99,0.04v3.1
			c0,0.47-0.01,0.82-0.04,1.06l2.58-0.04c0.63-0.01,1.11-0.17,1.45-0.48s0.5-0.85,0.5-1.62h0.46l-0.08,2.64h-6.98V13.43z"/>
		<path class="st1" d="M145.46,13.43c0.32-0.01,0.54-0.08,0.68-0.22c0.13-0.14,0.21-0.3,0.23-0.48c0.02-0.18,0.03-0.51,0.03-0.97
			V5.92c0-0.38,0.01-0.7,0.04-0.97L145.46,5V4.4c0.94-0.02,1.65-0.03,2.12-0.03c0.43,0,0.76,0,0.97,0.01
			c1.27,0.02,2.21,0.23,2.79,0.64c0.59,0.41,0.89,1,0.89,1.78c0.01,0.62-0.18,1.18-0.55,1.68c-0.38,0.5-1.04,0.84-1.98,1.03
			c0.15,0.12,0.29,0.26,0.42,0.42c0.13,0.16,0.3,0.42,0.51,0.76l0.92,1.45c0.2,0.32,0.36,0.56,0.49,0.72s0.29,0.3,0.47,0.41
			c0.19,0.1,0.41,0.16,0.68,0.16v0.45h-1.71c-0.24-0.21-0.45-0.42-0.62-0.64c-0.17-0.22-0.36-0.51-0.59-0.86l-0.91-1.45l-0.18-0.28
			c-0.14-0.24-0.27-0.44-0.38-0.6c-0.11-0.15-0.23-0.29-0.35-0.41c-0.08,0.01-0.21,0.01-0.38,0.01c-0.24,0-0.42,0-0.54-0.01v2.63
			c0,0.48-0.01,0.83-0.04,1.07l0.97-0.05v0.6h-3.05V13.43z M150.93,6.96c0-0.69-0.2-1.2-0.6-1.54s-1.01-0.51-1.83-0.51
			c-0.32,0-0.54,0.06-0.68,0.19c-0.13,0.13-0.21,0.28-0.23,0.46c-0.02,0.18-0.03,0.5-0.03,0.96v2.6c0.27,0.02,0.47,0.03,0.6,0.03
			C150.01,9.14,150.93,8.41,150.93,6.96z"/>
		<path class="st1" d="M155.04,13.43c0.32-0.01,0.54-0.08,0.68-0.22c0.14-0.14,0.21-0.3,0.23-0.48c0.02-0.18,0.03-0.51,0.03-0.97
			V5.92c0-0.38,0.01-0.7,0.04-0.97L155.04,5V4.4h3.05v0.45c-0.32,0.01-0.54,0.08-0.68,0.22c-0.13,0.14-0.21,0.3-0.23,0.48
			c-0.02,0.19-0.03,0.51-0.03,0.97v5.75c0,0.48-0.01,0.83-0.04,1.07l0.97-0.05v0.6h-3.05V13.43z"/>
		<path class="st1" d="M162.19,6.2h-0.01l0.04,5.79c0,0.6-0.01,1.05-0.03,1.34l0.97-0.05v0.6h-2.48v-0.45c0.36,0,0.6-0.1,0.72-0.31
			c0.12-0.21,0.18-0.46,0.18-0.76l0.01-7.42L160.69,5V4.4h1.61l5.77,7.72h0.01l0.01-6.2c0-0.38,0.01-0.7,0.04-0.97L167.16,5V4.4
			h2.49v0.45c-0.27,0.01-0.47,0.06-0.6,0.16s-0.21,0.22-0.25,0.39c-0.04,0.16-0.05,0.38-0.05,0.65v0.47l-0.03,7.58h-0.65L162.19,6.2
			z"/>
		<path class="st1" d="M174.08,13.52c-0.7-0.38-1.24-0.93-1.62-1.64c-0.39-0.71-0.58-1.56-0.58-2.53c0-0.88,0.18-1.72,0.53-2.5
			s0.89-1.42,1.6-1.92s1.57-0.74,2.57-0.74c0.49,0,0.98,0.07,1.48,0.2s0.94,0.31,1.32,0.55l-0.05-0.65h0.75v3.1h-0.49
			c-0.06-0.83-0.36-1.48-0.9-1.95c-0.54-0.47-1.21-0.7-2.01-0.7c-0.64,0-1.22,0.19-1.75,0.55c-0.53,0.37-0.95,0.88-1.26,1.54
			s-0.47,1.39-0.47,2.21c0,0.85,0.15,1.61,0.46,2.27c0.31,0.67,0.74,1.19,1.29,1.57c0.55,0.38,1.18,0.57,1.88,0.57
			c0.39,0,0.79-0.06,1.2-0.17c0.41-0.11,0.78-0.28,1.12-0.51V9.8l-0.95,0.05v-0.6h3.06v0.45c-0.43,0-0.7,0.17-0.81,0.49
			c-0.11,0.33-0.16,0.7-0.16,1.12v2.07h-0.37c-0.38,0-0.87,0.12-1.46,0.35c-0.27,0.11-0.59,0.19-0.96,0.26
			c-0.37,0.06-0.71,0.09-1.01,0.09C175.57,14.09,174.77,13.9,174.08,13.52z"/>
	</g>
</g>
<g>
	<path class="st1" d="M16.88,31.17c-0.43-1.03-0.69-1.85-0.78-2.46l-1.01,0.04v-0.8h4.2v0.6l-0.02,0.02
		c-0.4,0.02-0.69,0.11-0.88,0.26c-0.19,0.15-0.28,0.37-0.28,0.66c0,0.28,0.08,0.62,0.25,1.03l0.47,1.16c0.12,0.3,0.3,0.76,0.55,1.38
		c0.25,0.62,0.48,1.18,0.7,1.68l0.47,1.1c0.47,1.07,0.8,1.87,1,2.39h0.04l0.67-1.94l0.24-0.65l1.59-4.47l0.42-1.16
		c0.23-0.65,0.4-1.1,0.52-1.34l-1.39,0.07v-0.8h3.67v0.6c-0.53,0.02-0.94,0.16-1.22,0.42c-0.28,0.25-0.54,0.71-0.77,1.36L21.5,40.8
		h-0.51L16.88,31.17z"/>
	<path class="st1" d="M29.42,40.02c0.42-0.01,0.72-0.11,0.91-0.29c0.18-0.18,0.28-0.4,0.31-0.64c0.02-0.25,0.04-0.68,0.04-1.29
		v-7.82c0-0.51,0.02-0.94,0.05-1.3l-1.3,0.07v-0.8h4.07v0.6c-0.42,0.01-0.72,0.11-0.91,0.29c-0.18,0.18-0.28,0.4-0.31,0.64
		c-0.02,0.25-0.04,0.68-0.04,1.29v7.69c0,0.64-0.02,1.12-0.05,1.43l1.3-0.07v0.8h-4.07V40.02z"/>
	<path class="st1" d="M39.46,40.68c-0.57-0.16-1.08-0.39-1.51-0.69l0.09,0.78H37.1l-0.11-3.85h0.71c0.06,1.04,0.42,1.84,1.07,2.4
		c0.65,0.56,1.48,0.84,2.48,0.84c0.74,0,1.35-0.2,1.85-0.61c0.5-0.4,0.75-0.96,0.75-1.66c0-0.52-0.14-0.96-0.43-1.33
		c-0.28-0.37-0.63-0.68-1.05-0.92c-0.42-0.25-0.98-0.53-1.69-0.86c-0.81-0.39-1.45-0.72-1.93-1.01c-0.48-0.29-0.88-0.67-1.22-1.15
		c-0.34-0.48-0.51-1.06-0.51-1.76c0-0.48,0.11-0.96,0.33-1.45c0.22-0.48,0.61-0.89,1.16-1.23c0.55-0.34,1.28-0.51,2.18-0.51
		c0.54,0,1.09,0.07,1.64,0.21c0.55,0.14,1.05,0.38,1.51,0.71l-0.07-0.78h0.92v3.98h-0.65c-0.06-0.95-0.36-1.76-0.91-2.42
		c-0.55-0.66-1.32-0.99-2.31-0.99c-0.72,0-1.29,0.2-1.7,0.61s-0.62,0.91-0.62,1.51c0,0.48,0.14,0.9,0.42,1.25
		c0.28,0.35,0.62,0.64,1.01,0.87c0.4,0.23,0.96,0.51,1.68,0.85c0.82,0.37,1.48,0.71,1.98,1.01s0.93,0.7,1.28,1.19
		c0.35,0.49,0.52,1.09,0.52,1.8c0,0.68-0.17,1.27-0.5,1.79c-0.33,0.52-0.82,0.92-1.46,1.21c-0.64,0.29-1.4,0.43-2.28,0.43
		C40.6,40.91,40.03,40.83,39.46,40.68z"/>
	<path class="st1" d="M51.51,40.23c-0.74-0.45-1.27-1.15-1.59-2.08c-0.32-0.93-0.48-2.17-0.48-3.7v-3.67c0-0.77,0.02-1.47,0.07-2.1
		l-1.3,0.05v-0.78h4.05v0.6c-0.53,0-0.87,0.14-1.01,0.42c-0.15,0.28-0.22,0.62-0.22,1.01v4.56c0,1.05,0.09,1.96,0.28,2.72
		c0.19,0.77,0.55,1.39,1.1,1.88c0.55,0.49,1.34,0.73,2.36,0.73c1.25,0,2.19-0.43,2.8-1.29c0.61-0.86,0.93-2.04,0.95-3.52l0.05-5.09
		c0-0.51,0.02-0.94,0.05-1.3l-1.28,0.07v-0.8h3.37v0.6c-0.43,0.01-0.74,0.11-0.92,0.29c-0.18,0.18-0.28,0.4-0.31,0.64
		c-0.02,0.25-0.04,0.68-0.04,1.29l-0.04,4.2c-0.01,1.75-0.4,3.18-1.17,4.28c-0.77,1.1-2,1.66-3.7,1.66
		C53.26,40.91,52.25,40.68,51.51,40.23z"/>
	<path class="st1" d="M62.16,40.02c0.3,0,0.54-0.07,0.72-0.21c0.18-0.14,0.33-0.32,0.44-0.54c0.11-0.22,0.25-0.56,0.41-1l0.18-0.51
		l3.73-10.15h0.43l4.04,10.3c0.13,0.33,0.25,0.68,0.34,1.06c0.1,0.38,0.14,0.69,0.13,0.93l1.23-0.07v0.8h-4.14v-0.6
		c0.71-0.01,1.07-0.3,1.07-0.87c0-0.23-0.06-0.51-0.18-0.85l-0.63-1.7l-4.71,0.11c-0.18,0.5-0.39,1.14-0.63,1.94
		c-0.12,0.4-0.27,0.81-0.45,1.25l1.41-0.07v0.8h-3.38V40.02z M69.67,35.93l-1.29-3.46l-0.81-2.23h-0.04l-0.76,2.05l-0.98,2.75
		l-0.31,0.89H69.67z"/>
	<path class="st1" d="M76.04,40.02c0.42-0.01,0.72-0.11,0.91-0.29c0.18-0.18,0.28-0.4,0.31-0.64c0.02-0.25,0.04-0.68,0.04-1.29
		v-7.82c0-0.51,0.02-0.94,0.05-1.3l-1.3,0.07v-0.8h4.07v0.6c-0.42,0.01-0.72,0.11-0.91,0.29c-0.18,0.18-0.28,0.4-0.31,0.64
		c-0.02,0.25-0.04,0.68-0.04,1.29v7.76c0,0.63-0.02,1.1-0.05,1.41l3.38-0.05c0.77-0.01,1.35-0.26,1.74-0.73
		c0.39-0.48,0.58-1.24,0.58-2.29h0.62l-0.11,3.75h-8.98V40.02z"/>
</g>
<g>
	<defs>
		<rect id="SVGID_3_" x="-103.69" y="-18.4" width="366.76" height="121.57"/>
	</defs>
	<clipPath id="SVGID_4_">
		<use xlink:href="#SVGID_3_"  style="overflow:visible;"/>
	</clipPath>
	<g class="st2">
		<path class="st1" d="M106.64,25.97l-0.45,3.92c-0.25,2.23-0.44,3.99-0.55,5.28c-0.12,1.29-0.18,2.34-0.18,3.14
			c0,0.44,0.04,0.77,0.12,0.99s0.27,0.34,0.55,0.34c0.32,0,0.64-0.2,0.97-0.6c0.33-0.4,0.61-1.01,0.84-1.83l0.73,0.15
			c-0.08,0.47-0.26,0.98-0.54,1.53s-0.64,1.03-1.11,1.42s-1,0.59-1.62,0.59c-0.65,0-1.14-0.2-1.46-0.6
			c-0.32-0.4-0.48-0.95-0.48-1.66c0-0.91,0.12-1.99,0.38-3.24h-0.08c-0.62,2.09-1.34,3.54-2.15,4.32c-0.81,0.79-1.66,1.18-2.55,1.18
			c-1.11,0-1.95-0.45-2.53-1.34c-0.58-0.9-0.87-2.04-0.87-3.43c0-1.66,0.28-3.12,0.83-4.37c0.55-1.26,1.38-2.23,2.48-2.93
			c1.1-0.69,2.43-1.04,4.01-1.04c0.54,0,1,0.03,1.41,0.1l0.38-3.12c0.08-0.62,0.18-1.13,0.28-1.53l-1.83,0.1l0.1-1.01
			c1.01,0,1.73-0.06,2.16-0.18c0.44-0.12,0.78-0.28,1.03-0.5h0.73C106.98,23.32,106.77,24.76,106.64,25.97z M99.86,29.74
			c-0.7,0.7-1.21,1.59-1.53,2.65c-0.32,1.06-0.48,2.17-0.48,3.3c0,1.24,0.14,2.22,0.42,2.94c0.28,0.72,0.72,1.08,1.34,1.08
			c0.5,0,1.02-0.3,1.56-0.89s1.02-1.38,1.46-2.35c0.44-0.97,0.78-2.01,1.03-3.12c0.2-0.92,0.41-2.4,0.63-4.42
			c-0.45-0.17-1.02-0.25-1.71-0.25C101.46,28.68,100.56,29.03,99.86,29.74z"/>
		<path class="st1" d="M118.28,28.48c0.67,0.47,1,1.2,1,2.19c0,1.24-0.75,2.2-2.24,2.89c-1.49,0.69-3.22,1.14-5.18,1.36
			c0,1.58,0.23,2.76,0.7,3.54c0.47,0.79,1.19,1.18,2.16,1.18c0.77,0,1.52-0.25,2.24-0.77c0.72-0.51,1.35-1.27,1.88-2.27l0.83,0.48
			c-0.7,1.32-1.49,2.29-2.36,2.9c-0.87,0.61-1.88,0.92-3.02,0.92c-1.54,0-2.7-0.48-3.48-1.45c-0.78-0.96-1.17-2.29-1.17-3.98
			c0-1.36,0.23-2.62,0.69-3.78c0.46-1.16,1.15-2.11,2.07-2.83c0.92-0.72,2.04-1.08,3.34-1.08
			C116.77,27.78,117.61,28.01,118.28,28.48z M112.92,30.19c-0.59,1.04-0.93,2.31-1.03,3.82c1.46-0.2,2.71-0.6,3.74-1.21
			c1.04-0.6,1.56-1.36,1.56-2.26c0-0.55-0.16-1.01-0.46-1.37c-0.31-0.36-0.75-0.54-1.32-0.54
			C114.34,28.63,113.51,29.15,112.92,30.19z"/>
		<path class="st1" d="M125.77,23.43c-0.2,1.17-0.33,2-0.38,2.49c-0.27,1.96-0.52,4.23-0.77,6.82s-0.36,4.45-0.36,5.59
			c0,0.42,0.04,0.74,0.13,0.97c0.08,0.23,0.27,0.34,0.55,0.34c0.32,0,0.64-0.2,0.98-0.59s0.62-1.01,0.85-1.85l0.7,0.18
			c-0.08,0.47-0.26,0.98-0.53,1.52c-0.27,0.54-0.63,1.01-1.09,1.41s-1,0.59-1.62,0.59c-0.7,0-1.21-0.18-1.53-0.55
			s-0.48-0.93-0.48-1.68c0-1.11,0.15-3.14,0.44-6.11c0.29-2.97,0.6-5.62,0.92-7.97l0.23-1.36l-1.79,0.1l0.13-1.01
			c0.99,0,1.7-0.06,2.14-0.18c0.44-0.12,0.79-0.28,1.05-0.5h0.7L125.77,23.43z"/>
		<path class="st1" d="M132.69,28.48c0.36,0.47,0.54,1.11,0.54,1.91c0,0.65-0.14,1.8-0.43,3.44c-0.17,1.05-0.3,1.94-0.39,2.65
			c-0.09,0.71-0.14,1.41-0.14,2.1c0,0.7,0.26,1.06,0.78,1.06c0.32,0,0.64-0.2,0.98-0.6c0.33-0.4,0.62-1.01,0.85-1.83l0.7,0.15
			c-0.2,0.91-0.56,1.72-1.08,2.45c-0.52,0.73-1.2,1.09-2.04,1.09c-1.51,0-2.26-0.79-2.26-2.36c0-0.65,0.04-1.29,0.13-1.91
			c0.08-0.62,0.21-1.39,0.38-2.31c0.17-1.02,0.29-1.81,0.36-2.37c0.08-0.56,0.11-1.15,0.11-1.77c0-0.28-0.05-0.54-0.16-0.78
			c-0.11-0.23-0.29-0.35-0.54-0.35c-0.32,0-0.65,0.2-0.98,0.6s-0.62,1.01-0.85,1.83l-0.7-0.15c0.15-0.82,0.49-1.62,1.03-2.39
			c0.54-0.77,1.25-1.16,2.14-1.16C131.81,27.78,132.33,28.01,132.69,28.48z M133.51,22.75c0.25,0.27,0.38,0.61,0.38,1.03
			c0,0.42-0.13,0.76-0.4,1.02c-0.27,0.26-0.59,0.39-0.96,0.39c-0.37,0-0.68-0.13-0.94-0.39c-0.26-0.26-0.39-0.6-0.39-1.02
			c0-0.42,0.13-0.76,0.4-1.03c0.27-0.27,0.59-0.4,0.96-0.4C132.94,22.35,133.26,22.48,133.51,22.75z"/>
		<path class="st1" d="M145.96,27.89c0.58,0.08,1.06,0.18,1.45,0.31c-0.08,1.37-0.3,4.12-0.65,8.24l-0.33,3.82
			c-0.2,2.38-0.85,4.17-1.96,5.37c-1.11,1.2-2.6,1.8-4.47,1.8c-0.49,0-1.01-0.07-1.58-0.2c-0.57-0.13-1.06-0.36-1.48-0.68
			s-0.64-0.73-0.65-1.23c0-0.35,0.11-0.65,0.34-0.9c0.23-0.25,0.51-0.38,0.84-0.38c0.32,0,0.59,0.1,0.8,0.3s0.33,0.49,0.33,0.85
			c0,0.22-0.05,0.44-0.15,0.65c0.15,0.23,0.39,0.41,0.73,0.53c0.33,0.12,0.67,0.18,1,0.18c1.19,0,2.1-0.41,2.73-1.22
			c0.63-0.81,1.05-1.79,1.27-2.93s0.4-2.61,0.55-4.42c0.1-1.24,0.19-2.14,0.28-2.71h-0.08c-0.64,2.2-1.34,3.68-2.11,4.46
			c-0.77,0.78-1.62,1.17-2.54,1.17c-1.12,0-1.97-0.44-2.54-1.33c-0.57-0.89-0.85-2.07-0.85-3.54c0-1.49,0.27-2.86,0.8-4.11
			c0.54-1.25,1.36-2.25,2.46-3c1.11-0.75,2.46-1.13,4.07-1.13C144.8,27.78,145.38,27.82,145.96,27.89z M141.01,29.76
			c-0.73,0.72-1.25,1.6-1.56,2.65c-0.31,1.05-0.47,2.11-0.47,3.18c0,1.26,0.14,2.26,0.43,3c0.28,0.75,0.75,1.12,1.38,1.12
			c0.74,0,1.45-0.57,2.15-1.72c0.69-1.15,1.27-2.56,1.72-4.25c0.45-1.68,0.72-3.26,0.8-4.74c-0.44-0.22-0.99-0.33-1.66-0.33
			C142.67,28.68,141.74,29.04,141.01,29.76z"/>
		<path class="st1" d="M153.99,22.9c-0.27,1.61-0.43,2.61-0.48,3.02c-0.12,0.85-0.26,2.09-0.42,3.71s-0.27,2.87-0.34,3.76h0.08
			c0.79-2.13,1.58-3.59,2.38-4.4c0.8-0.8,1.65-1.21,2.58-1.21c0.94,0,1.63,0.31,2.09,0.92s0.68,1.39,0.68,2.35
			c0,1.12-0.14,2.73-0.43,4.83c-0.18,1.32-0.28,2.2-0.28,2.61c0,0.37,0.05,0.65,0.14,0.85c0.09,0.2,0.27,0.3,0.54,0.3
			c0.32,0,0.64-0.2,0.98-0.59c0.33-0.39,0.62-1.01,0.85-1.85l0.63,0.18c-0.15,0.8-0.5,1.59-1.04,2.36
			c-0.54,0.77-1.26,1.16-2.15,1.16c-0.75,0-1.28-0.2-1.58-0.59s-0.45-1-0.45-1.82c0-0.64,0.11-1.75,0.33-3.34
			c0.03-0.22,0.11-0.84,0.23-1.87c0.12-1.03,0.18-1.96,0.18-2.78c0-0.39-0.09-0.74-0.28-1.06s-0.49-0.48-0.93-0.48
			c-0.72,0-1.46,0.54-2.21,1.61s-1.37,2.42-1.86,4.03c-0.49,1.62-0.73,3.18-0.73,4.69c0,0.32,0.02,0.76,0.05,1.33h-2.06
			c-0.02-0.15-0.03-0.37-0.03-0.65c0-1.24,0.14-3.66,0.43-7.25c0.28-3.59,0.56-6.31,0.83-8.15c0.03-0.2,0.11-0.65,0.23-1.33
			l-1.76,0.1l0.1-1.01c1,0,1.73-0.06,2.16-0.18c0.44-0.12,0.78-0.28,1.03-0.5h0.73L153.99,22.9z"/>
		<path class="st1" d="M168.31,28.05h4l-0.08,0.96l-4.02,0.05l-0.18,1.61c-0.37,3.18-0.55,5.44-0.55,6.76
			c0,0.65,0.08,1.18,0.23,1.58c0.15,0.4,0.47,0.6,0.96,0.6c0.87,0,1.66-0.59,2.36-1.76l0.65,0.43c-0.52,0.89-1.06,1.54-1.62,1.97
			c-0.56,0.43-1.23,0.64-2,0.64c-0.92,0-1.59-0.28-2-0.83c-0.41-0.55-0.62-1.26-0.62-2.14c0-0.97,0.06-2.25,0.18-3.83
			c0.12-1.58,0.28-3.25,0.48-5.01l-2.24,0.02l0.08-1.06c1.01,0,1.82-0.3,2.44-0.89c0.62-0.59,1.1-1.48,1.43-2.65h0.96L168.31,28.05z
			"/>
		<path class="st1" d="M180.77,28.47c0.75,0.46,1.12,1.05,1.12,1.77c0,0.35-0.1,0.63-0.3,0.84c-0.2,0.21-0.45,0.31-0.75,0.31
			c-0.29,0-0.52-0.1-0.72-0.3c-0.19-0.2-0.29-0.44-0.29-0.7c0-0.29,0.08-0.54,0.23-0.78c-0.1-0.3-0.32-0.54-0.65-0.73
			c-0.34-0.18-0.77-0.28-1.31-0.28c-0.59,0-1.12,0.19-1.6,0.57c-0.48,0.38-0.72,0.85-0.72,1.42c0,0.49,0.22,0.92,0.65,1.31
			c0.44,0.39,1.11,0.84,2.01,1.36c0.75,0.44,1.37,0.83,1.83,1.17c0.47,0.34,0.87,0.75,1.19,1.22c0.33,0.47,0.49,1,0.49,1.58
			c0,0.7-0.2,1.33-0.59,1.88s-0.95,0.99-1.67,1.31c-0.72,0.32-1.54,0.48-2.46,0.48c-1.09,0-2.03-0.24-2.83-0.73
			c-0.8-0.49-1.19-1.14-1.19-1.96c0-0.35,0.1-0.64,0.31-0.88c0.21-0.23,0.46-0.35,0.77-0.35c0.32,0,0.57,0.11,0.75,0.31
			c0.18,0.21,0.28,0.46,0.28,0.74c0,0.29-0.08,0.54-0.23,0.78c0.12,0.35,0.38,0.63,0.78,0.84c0.4,0.21,0.84,0.31,1.31,0.31
			c0.89,0,1.56-0.21,2.02-0.62c0.46-0.41,0.69-1,0.69-1.77c0-0.55-0.24-1.04-0.7-1.46c-0.47-0.42-1.18-0.9-2.14-1.46
			c-1.07-0.62-1.88-1.18-2.43-1.68c-0.54-0.5-0.82-1.11-0.82-1.81c0-0.6,0.18-1.17,0.55-1.68c0.37-0.52,0.88-0.93,1.55-1.24
			c0.66-0.31,1.41-0.46,2.25-0.46C179.15,27.78,180.02,28.01,180.77,28.47z"/>
	</g>
	<g class="st2">
		<path class="st1" d="M4.67,28.14c0.36,0.22,0.65,0.54,0.86,0.95c0.21,0.42,0.31,0.91,0.31,1.48c0,0.69-0.12,1.32-0.37,1.9
			c-0.25,0.58-0.6,1.04-1.07,1.39s-1.01,0.52-1.64,0.52c-0.8,0-1.4-0.26-1.81-0.79c-0.41-0.52-0.61-1.2-0.61-2.03
			c0-0.69,0.13-1.32,0.38-1.89c0.25-0.57,0.61-1.02,1.08-1.36s1.02-0.5,1.65-0.5C3.89,27.81,4.3,27.92,4.67,28.14z M2.27,28.67
			C2,28.94,1.79,29.3,1.65,29.76c-0.14,0.46-0.21,0.97-0.21,1.53c0,0.7,0.11,1.31,0.34,1.83s0.6,0.79,1.11,0.79
			c0.43,0,0.78-0.16,1.05-0.49c0.27-0.33,0.47-0.73,0.6-1.21c0.13-0.48,0.19-0.94,0.19-1.4c0-0.71-0.11-1.3-0.33-1.79
			c-0.22-0.49-0.61-0.74-1.15-0.74C2.87,28.28,2.55,28.41,2.27,28.67z"/>
		<path class="st1" d="M11.1,24.85c0.16,0.11,0.24,0.27,0.24,0.48c0,0.12-0.04,0.23-0.12,0.34c-0.08,0.11-0.2,0.16-0.36,0.16
			c-0.17,0-0.3-0.06-0.4-0.18c-0.1-0.12-0.14-0.27-0.13-0.45c-0.05-0.03-0.15-0.05-0.29-0.05c-0.39,0-0.68,0.24-0.85,0.71
			s-0.3,1.17-0.37,2.09h1.79l-0.04,0.49l-1.79,0.03l-0.04,0.7c-0.06,0.98-0.1,1.68-0.14,2.1l-0.08,0.89
			c-0.1,1.23-0.22,2.21-0.35,2.93s-0.39,1.32-0.75,1.82c-0.37,0.5-0.91,0.74-1.62,0.74c-0.32,0-0.56-0.05-0.73-0.16
			S4.82,37.22,4.82,37c0-0.12,0.04-0.23,0.13-0.35s0.21-0.17,0.36-0.17c0.16,0,0.29,0.05,0.38,0.16s0.14,0.25,0.14,0.42
			c0.09,0.07,0.21,0.1,0.37,0.1c0.3,0,0.53-0.17,0.69-0.5c0.16-0.33,0.27-0.76,0.34-1.29s0.14-1.31,0.21-2.35
			c0.05-0.84,0.1-1.46,0.14-1.86l0.08-0.91c0.04-0.63,0.09-1.22,0.15-1.78L6.7,28.49l0.06-0.54h1.11c0.15-1.04,0.42-1.85,0.79-2.42
			c0.38-0.57,0.96-0.86,1.76-0.86C10.72,24.68,10.94,24.74,11.1,24.85z"/>
	</g>
</g>
</svg>
