<?xml version="1.0" encoding="utf-8"?>
<!-- Generator: Adobe Illustrator 25.2.3, SVG Export Plug-In . SVG Version: 6.00 Build 0)  -->
<svg version="1.1" id="Layer_1" xmlns="http://www.w3.org/2000/svg" xmlns:xlink="http://www.w3.org/1999/xlink" x="0px" y="0px"
	 viewBox="0 0 104.88 89.99" style="enable-background:new 0 0 104.88 89.99;" xml:space="preserve">
<style type="text/css">
	.st0{fill:#97C4CF;}
</style>
<g>
	<g>
		<path class="st0" d="M14.01,12.82c0.12,0.36,0.24,0.76,0.33,1.21s0.13,0.81,0.1,1.08l1.35-0.08l-0.04,0.92h-4.52l0.02-0.69
			c0.83-0.01,1.25-0.36,1.25-1.04c0-0.24-0.06-0.55-0.17-0.94l-0.6-1.96L6.4,11.44l-0.83,2.23c-0.21,0.54-0.42,1.02-0.65,1.44
			l1.56-0.08l-0.04,0.92H2.63l0.02-0.69c0.49-0.01,0.89-0.23,1.2-0.65c0.31-0.42,0.65-1.07,1.01-1.96L9.57,0.96h0.46L14.01,12.82z
			 M9.28,3.86L8.4,6.19C8.24,6.6,7.81,7.71,7.13,9.53l-0.4,1.02h4.77c-0.79-2.49-1.52-4.72-2.19-6.69H9.28z"/>
		<path class="st0" d="M25.88,6.05c0.37,0.5,0.55,1.15,0.55,1.96c0,0.93-0.13,2.26-0.4,4c-0.15,1.1-0.23,1.82-0.23,2.17
			c0,0.31,0.04,0.54,0.11,0.71c0.08,0.17,0.23,0.25,0.45,0.25c0.26,0,0.53-0.16,0.81-0.49c0.28-0.33,0.51-0.84,0.71-1.53l0.58,0.15
			c-0.07,0.39-0.22,0.81-0.45,1.26c-0.23,0.45-0.54,0.84-0.92,1.17c-0.38,0.33-0.83,0.49-1.34,0.49c-0.62,0-1.06-0.16-1.31-0.49
			c-0.25-0.33-0.38-0.83-0.38-1.51c0-0.51,0.09-1.43,0.27-2.75c0.25-1.69,0.38-2.99,0.38-3.88c0-0.32-0.07-0.61-0.22-0.88
			c-0.15-0.26-0.4-0.4-0.76-0.4c-0.61,0-1.24,0.46-1.88,1.39c-0.64,0.92-1.17,2.06-1.59,3.42c-0.42,1.35-0.64,2.61-0.64,3.76
			c0,0.26,0.01,0.63,0.04,1.1h-1.75c-0.01-0.12-0.02-0.31-0.02-0.54c0-0.33,0.03-0.8,0.09-1.4c0.06-0.6,0.16-1.38,0.28-2.35
			c0-0.08,0.01-0.22,0.04-0.42c0.01-0.18,0.03-0.37,0.06-0.56c0.03-0.19,0.05-0.39,0.06-0.58c0.1-0.85,0.17-1.47,0.21-1.85
			c0.04-0.39,0.06-0.71,0.06-0.96c0-0.29-0.04-0.52-0.11-0.69c-0.08-0.17-0.23-0.25-0.45-0.25c-0.26,0-0.53,0.17-0.81,0.5
			c-0.28,0.33-0.51,0.84-0.71,1.52l-0.58-0.12c0.07-0.39,0.22-0.81,0.45-1.27c0.23-0.46,0.53-0.85,0.92-1.18
			c0.38-0.33,0.83-0.49,1.34-0.49c1.04,0,1.56,0.72,1.56,2.15c0,0.4-0.04,0.84-0.11,1.32c-0.08,0.48-0.15,0.91-0.22,1.28h0.06
			c0.67-1.78,1.33-3.01,1.99-3.71c0.66-0.69,1.36-1.04,2.11-1.04C24.94,5.3,25.51,5.55,25.88,6.05z"/>
		<path class="st0" d="M42.16,5.88C42.72,6.27,43,6.87,43,7.69c0,1.03-0.62,1.83-1.85,2.4c-1.24,0.57-2.67,0.94-4.29,1.12
			c0,1.31,0.19,2.29,0.58,2.94c0.39,0.65,0.99,0.98,1.79,0.98c0.64,0,1.26-0.21,1.85-0.64c0.6-0.42,1.12-1.05,1.56-1.89l0.69,0.4
			c-0.58,1.1-1.24,1.9-1.96,2.41c-0.72,0.51-1.56,0.76-2.5,0.76c-1.28,0-2.24-0.4-2.89-1.2c-0.65-0.8-0.97-1.9-0.97-3.3
			c0-1.12,0.19-2.17,0.57-3.14c0.38-0.97,0.96-1.75,1.72-2.34c0.76-0.6,1.69-0.9,2.77-0.9C40.91,5.3,41.61,5.49,42.16,5.88z
			 M37.72,7.3c-0.49,0.86-0.77,1.92-0.85,3.17c1.21-0.17,2.24-0.5,3.1-1c0.86-0.5,1.29-1.12,1.29-1.88c0-0.46-0.13-0.84-0.39-1.14
			c-0.26-0.3-0.62-0.45-1.09-0.45C38.9,6.01,38.21,6.44,37.72,7.3z"/>
		<path class="st0" d="M51.53,5.62c0.48,0.22,0.85,0.51,1.13,0.88s0.41,0.78,0.41,1.24c0,0.32-0.08,0.57-0.25,0.75
			c-0.17,0.18-0.39,0.27-0.67,0.27s-0.49-0.09-0.64-0.27c-0.15-0.18-0.22-0.37-0.22-0.56c0-0.33,0.09-0.6,0.27-0.79
			c-0.07-0.38-0.25-0.65-0.55-0.83c-0.3-0.18-0.66-0.27-1.09-0.27c-1.1,0-1.89,0.51-2.39,1.54s-0.74,2.22-0.74,3.56
			c0,1.39,0.23,2.41,0.68,3.05c0.45,0.65,1.07,0.97,1.87,0.97c0.61,0,1.2-0.2,1.77-0.61c0.57-0.41,1.04-1.08,1.42-2.01l0.73,0.35
			c-0.5,1.15-1.12,1.99-1.85,2.51c-0.74,0.52-1.54,0.78-2.42,0.78c-1.26,0-2.25-0.38-2.96-1.14s-1.06-1.9-1.06-3.43
			c0-0.97,0.18-1.94,0.55-2.92c0.37-0.97,0.93-1.78,1.68-2.43s1.67-0.97,2.75-0.97C50.52,5.3,51.05,5.4,51.53,5.62z"/>
		<path class="st0" d="M58.23,1.69c-0.17,0.97-0.27,1.66-0.31,2.06c-0.22,1.63-0.43,3.51-0.64,5.66c-0.2,2.15-0.3,3.69-0.3,4.64
			c0,0.35,0.03,0.61,0.1,0.8c0.07,0.19,0.22,0.28,0.46,0.28c0.26,0,0.53-0.16,0.81-0.49c0.28-0.33,0.51-0.84,0.71-1.53l0.58,0.15
			c-0.07,0.39-0.22,0.81-0.44,1.26c-0.22,0.45-0.52,0.84-0.91,1.17c-0.38,0.33-0.83,0.49-1.34,0.49c-0.58,0-1.01-0.15-1.27-0.46
			c-0.26-0.31-0.4-0.77-0.4-1.4c0-0.92,0.12-2.6,0.37-5.06c0.24-2.46,0.5-4.66,0.76-6.61l0.19-1.13l-1.48,0.08l0.1-0.83
			c0.82,0,1.41-0.05,1.77-0.15s0.65-0.24,0.88-0.42h0.58L58.23,1.69z"/>
		<path class="st0" d="M67.86,5.88c0.55,0.39,0.83,0.99,0.83,1.81c0,1.03-0.62,1.83-1.85,2.4s-2.67,0.94-4.29,1.12
			c0,1.31,0.19,2.29,0.58,2.94c0.39,0.65,0.99,0.98,1.79,0.98c0.64,0,1.26-0.21,1.85-0.64s1.12-1.05,1.56-1.89l0.69,0.4
			c-0.58,1.1-1.24,1.9-1.96,2.41c-0.72,0.51-1.56,0.76-2.5,0.76c-1.28,0-2.24-0.4-2.89-1.2c-0.65-0.8-0.97-1.9-0.97-3.3
			c0-1.12,0.19-2.17,0.57-3.14c0.38-0.97,0.96-1.75,1.72-2.34c0.76-0.6,1.69-0.9,2.77-0.9C66.6,5.3,67.3,5.49,67.86,5.88z
			 M63.42,7.3c-0.49,0.86-0.77,1.92-0.85,3.17c1.21-0.17,2.24-0.5,3.1-1c0.86-0.5,1.29-1.12,1.29-1.88c0-0.46-0.13-0.84-0.39-1.14
			c-0.26-0.3-0.62-0.45-1.09-0.45C64.59,6.01,63.9,6.44,63.42,7.3z"/>
		<path class="st0" d="M77.22,5.62c0.48,0.22,0.85,0.51,1.12,0.88c0.27,0.37,0.41,0.78,0.41,1.24c0,0.32-0.08,0.57-0.25,0.75
			c-0.17,0.18-0.39,0.27-0.67,0.27c-0.28,0-0.49-0.09-0.64-0.27c-0.15-0.18-0.22-0.37-0.22-0.56c0-0.33,0.09-0.6,0.27-0.79
			C77.18,6.76,77,6.48,76.7,6.3c-0.3-0.18-0.66-0.27-1.09-0.27c-1.1,0-1.89,0.51-2.39,1.54s-0.74,2.22-0.74,3.56
			c0,1.39,0.23,2.41,0.68,3.05c0.45,0.65,1.07,0.97,1.86,0.97c0.61,0,1.2-0.2,1.77-0.61c0.57-0.41,1.04-1.08,1.42-2.01l0.73,0.35
			c-0.5,1.15-1.12,1.99-1.85,2.51s-1.54,0.78-2.42,0.78c-1.26,0-2.25-0.38-2.96-1.14c-0.71-0.76-1.06-1.9-1.06-3.43
			c0-0.97,0.18-1.94,0.55-2.92c0.37-0.97,0.93-1.78,1.68-2.43c0.75-0.65,1.67-0.97,2.75-0.97C76.21,5.3,76.74,5.4,77.22,5.62z"/>
		<path class="st0" d="M83.84,5.53h3.31l-0.06,0.79l-3.33,0.04l-0.15,1.33c-0.31,2.64-0.46,4.51-0.46,5.61
			c0,0.54,0.06,0.98,0.19,1.31c0.12,0.33,0.39,0.5,0.79,0.5c0.72,0,1.38-0.49,1.96-1.46l0.54,0.35c-0.43,0.74-0.88,1.28-1.34,1.64
			c-0.46,0.35-1.02,0.53-1.66,0.53c-0.76,0-1.32-0.23-1.66-0.69c-0.34-0.46-0.51-1.05-0.51-1.77c0-0.81,0.05-1.87,0.15-3.18
			c0.1-1.31,0.23-2.7,0.4-4.16L80.15,6.4l0.06-0.88c0.83,0,1.51-0.25,2.02-0.74c0.51-0.49,0.91-1.23,1.19-2.2h0.79L83.84,5.53z"/>
		<path class="st0" d="M91.35,5.88c0.3,0.39,0.45,0.92,0.45,1.58c0,0.54-0.12,1.49-0.35,2.85c-0.14,0.88-0.25,1.61-0.32,2.2
			s-0.11,1.17-0.11,1.74c0,0.58,0.21,0.88,0.65,0.88c0.26,0,0.54-0.17,0.81-0.5c0.28-0.33,0.51-0.84,0.71-1.52l0.58,0.12
			c-0.17,0.75-0.46,1.43-0.9,2.03s-0.99,0.91-1.69,0.91c-1.25,0-1.88-0.65-1.88-1.96c0-0.54,0.03-1.07,0.1-1.58
			c0.07-0.51,0.17-1.15,0.31-1.92c0.14-0.85,0.24-1.5,0.3-1.97c0.06-0.47,0.09-0.96,0.09-1.47c0-0.24-0.04-0.45-0.14-0.65
			c-0.09-0.19-0.24-0.29-0.45-0.29c-0.26,0-0.54,0.17-0.81,0.5C88.44,7.17,88.2,7.68,88,8.36l-0.58-0.12
			c0.12-0.68,0.41-1.34,0.85-1.98c0.44-0.64,1.04-0.96,1.77-0.96C90.62,5.3,91.05,5.49,91.35,5.88z M92.03,1.13
			c0.21,0.22,0.31,0.51,0.31,0.85c0,0.35-0.11,0.63-0.33,0.84c-0.22,0.22-0.49,0.32-0.79,0.32s-0.57-0.11-0.78-0.32
			c-0.22-0.22-0.32-0.5-0.32-0.84c0-0.35,0.11-0.63,0.33-0.85c0.22-0.22,0.49-0.33,0.79-0.33C91.55,0.8,91.82,0.91,92.03,1.13z"/>
		<path class="st0" d="M101.42,5.62c0.48,0.22,0.85,0.51,1.12,0.88c0.27,0.37,0.41,0.78,0.41,1.24c0,0.32-0.08,0.57-0.25,0.75
			c-0.17,0.18-0.39,0.27-0.67,0.27c-0.28,0-0.49-0.09-0.64-0.27c-0.15-0.18-0.22-0.37-0.22-0.56c0-0.33,0.09-0.6,0.27-0.79
			c-0.07-0.38-0.25-0.65-0.55-0.83c-0.3-0.18-0.66-0.27-1.09-0.27c-1.1,0-1.89,0.51-2.39,1.54c-0.49,1.03-0.74,2.22-0.74,3.56
			c0,1.39,0.23,2.41,0.68,3.05c0.45,0.65,1.07,0.97,1.86,0.97c0.61,0,1.2-0.2,1.77-0.61c0.57-0.41,1.04-1.08,1.42-2.01l0.73,0.35
			c-0.5,1.15-1.12,1.99-1.85,2.51s-1.54,0.78-2.42,0.78c-1.26,0-2.25-0.38-2.96-1.14c-0.71-0.76-1.06-1.9-1.06-3.43
			c0-0.97,0.18-1.94,0.55-2.92c0.37-0.97,0.93-1.78,1.68-2.43c0.75-0.65,1.67-0.97,2.75-0.97C100.4,5.3,100.94,5.4,101.42,5.62z"/>
	</g>
</g>
<g>
	<g>
		<path class="st0" d="M95.49,32.36c-0.8-0.44-1.43-1.08-1.88-1.91c-0.45-0.83-0.67-1.8-0.67-2.93c0-1.02,0.21-1.99,0.62-2.9
			s1.03-1.65,1.86-2.22s1.82-0.85,2.98-0.85c0.56,0,1.14,0.08,1.72,0.23c0.58,0.15,1.09,0.36,1.53,0.64l-0.06-0.75h0.86v3.59h-0.56
			c-0.07-0.96-0.42-1.71-1.04-2.26c-0.62-0.54-1.4-0.82-2.33-0.82c-0.74,0-1.42,0.21-2.03,0.64c-0.61,0.43-1.1,1.02-1.46,1.78
			c-0.36,0.76-0.54,1.61-0.54,2.56c0,0.98,0.18,1.86,0.53,2.63c0.35,0.77,0.85,1.38,1.49,1.82c0.64,0.44,1.36,0.66,2.18,0.66
			c0.45,0,0.91-0.06,1.39-0.2c0.48-0.13,0.91-0.33,1.29-0.59v-3.43l-1.1,0.06v-0.69h3.54v0.52c-0.5,0-0.82,0.19-0.94,0.57
			c-0.12,0.38-0.19,0.81-0.19,1.29v2.4h-0.42c-0.44,0-1,0.14-1.69,0.41c-0.31,0.13-0.68,0.22-1.11,0.3s-0.82,0.11-1.18,0.11
			C97.22,33.03,96.29,32.8,95.49,32.36z"/>
	</g>
	<g>
		<path class="st0" d="M81.7,23.88h-0.02l0.05,6.71c0,0.7-0.01,1.22-0.03,1.55l1.13-0.06v0.69h-2.87v-0.52
			c0.42,0,0.7-0.12,0.83-0.36c0.14-0.24,0.2-0.53,0.2-0.88l0.02-8.59l-1.05,0.06V21.8h1.87l6.68,8.94h0.02l0.02-7.18
			c0-0.44,0.02-0.82,0.05-1.13l-1.13,0.06V21.8h2.88v0.52c-0.31,0.01-0.55,0.07-0.7,0.18c-0.15,0.11-0.25,0.26-0.29,0.45
			c-0.04,0.19-0.06,0.44-0.06,0.75v0.55l-0.03,8.78h-0.75L81.7,23.88z"/>
	</g>
	<g>
		<path class="st0" d="M73.42,32.26c0.37-0.01,0.63-0.09,0.78-0.25c0.16-0.16,0.25-0.34,0.27-0.56c0.02-0.21,0.03-0.59,0.03-1.12
			v-6.77c0-0.44,0.02-0.82,0.05-1.13l-1.13,0.06V21.8h3.53v0.52c-0.37,0.01-0.63,0.09-0.78,0.25c-0.16,0.16-0.25,0.34-0.27,0.56
			c-0.02,0.21-0.03,0.59-0.03,1.12v6.67c0,0.55-0.02,0.97-0.05,1.24l1.13-0.06v0.69h-3.53V32.26z"/>
	</g>
	<g>
		<path class="st0" d="M62.32,32.26c0.37-0.01,0.63-0.09,0.78-0.25c0.16-0.16,0.25-0.34,0.27-0.56c0.02-0.21,0.03-0.59,0.03-1.12
			v-6.77c0-0.44,0.02-0.82,0.05-1.13l-1.13,0.06V21.8c1.09-0.02,1.91-0.03,2.46-0.03c0.5,0,0.88,0.01,1.13,0.02
			c1.47,0.02,2.55,0.27,3.24,0.75c0.68,0.48,1.03,1.16,1.03,2.06c0.01,0.72-0.2,1.37-0.64,1.94c-0.44,0.58-1.2,0.97-2.29,1.19
			c0.18,0.14,0.34,0.3,0.49,0.49c0.15,0.19,0.34,0.48,0.6,0.88l1.07,1.68c0.23,0.37,0.42,0.65,0.57,0.84
			c0.15,0.19,0.33,0.35,0.55,0.47c0.21,0.12,0.48,0.18,0.79,0.18v0.52h-1.98c-0.28-0.24-0.52-0.49-0.71-0.75
			c-0.19-0.26-0.42-0.59-0.68-1l-1.05-1.68l-0.2-0.33c-0.17-0.28-0.31-0.51-0.44-0.69c-0.12-0.18-0.26-0.33-0.41-0.47
			c-0.09,0.01-0.24,0.02-0.44,0.02c-0.28,0-0.49,0-0.63-0.02v3.04c0,0.55-0.02,0.97-0.05,1.24l1.13-0.06v0.69h-3.53V32.26z
			 M68.66,24.76c0-0.79-0.23-1.39-0.69-1.79c-0.46-0.4-1.17-0.6-2.12-0.6c-0.37,0-0.63,0.07-0.78,0.22
			c-0.16,0.15-0.25,0.32-0.27,0.53c-0.02,0.21-0.03,0.58-0.03,1.11v3.01c0.31,0.02,0.54,0.03,0.69,0.03
			C67.59,27.29,68.66,26.44,68.66,24.76z"/>
	</g>
	<g>
		<path class="st0" d="M51.31,32.26c0.37-0.01,0.63-0.09,0.78-0.25c0.16-0.16,0.25-0.34,0.27-0.56s0.03-0.59,0.03-1.12v-6.77
			c0-0.44,0.02-0.82,0.05-1.13l-1.13,0.06V21.8h7.54l0.08,2.74h-0.52c0-0.86-0.19-1.44-0.56-1.76s-0.89-0.46-1.56-0.44l-1.35,0.03
			c-0.38,0.01-0.65,0.08-0.82,0.21c-0.17,0.13-0.27,0.31-0.31,0.55c-0.04,0.23-0.06,0.6-0.06,1.11v2.51l2.95,0.02l-0.11-1.35h0.69
			v3.29h-0.52c0-0.39-0.05-0.68-0.14-0.89c-0.09-0.2-0.24-0.34-0.43-0.41s-0.46-0.1-0.81-0.1l-0.49,0.02l-1.14,0.05v3.59
			c0,0.54-0.02,0.95-0.05,1.22l3-0.05c0.73-0.01,1.29-0.2,1.68-0.56s0.58-0.99,0.58-1.87h0.53l-0.09,3.06h-8.09V32.26z"/>
	</g>
	<g>
		<path class="st0" d="M37.82,32.26c0.37-0.01,0.63-0.09,0.78-0.25c0.16-0.16,0.25-0.34,0.27-0.56s0.03-0.59,0.03-1.12v-6.77
			c0-0.44,0.02-0.82,0.05-1.13l-1.13,0.06V21.8h3.53v0.52c-0.37,0.01-0.63,0.09-0.78,0.25c-0.16,0.16-0.25,0.34-0.27,0.56
			s-0.03,0.59-0.03,1.12v2.6h5.61v-3.29c0-0.44,0.02-0.82,0.05-1.13l-1.13,0.06V21.8h3.53v0.52c-0.37,0.01-0.63,0.09-0.78,0.25
			c-0.16,0.16-0.25,0.34-0.27,0.56s-0.03,0.59-0.03,1.12v6.67c0,0.55-0.02,0.97-0.05,1.24l1.13-0.06v0.69H44.8v-0.52
			c0.37-0.01,0.63-0.09,0.78-0.25s0.25-0.34,0.27-0.56c0.02-0.21,0.03-0.59,0.03-1.12v-2.85l-5.61,0.06v3.37
			c0,0.55-0.02,0.97-0.05,1.24l1.13-0.06v0.69h-3.53V32.26z"/>
	</g>
	<g>
		<path class="st0" d="M28.93,32.26c0.45-0.02,0.74-0.15,0.87-0.38c0.13-0.23,0.2-0.59,0.2-1.07v-0.49l0.02-7.95l-1.62,0.02
			c-0.65,0-1.11,0.22-1.39,0.65c-0.28,0.43-0.42,1.12-0.42,2.06h-0.58l0.09-3.31h9.14l0.09,3.31h-0.6c-0.01-0.66-0.08-1.18-0.2-1.58
			c-0.12-0.39-0.32-0.69-0.61-0.88s-0.7-0.29-1.23-0.29h-1.33l-0.02,8.55c0,0.55-0.02,0.97-0.05,1.24l1.3-0.06v0.69h-3.69V32.26z"/>
	</g>
	<g>
		<path class="st0" d="M14.88,32.26c0.26,0,0.47-0.06,0.63-0.18s0.28-0.28,0.38-0.47c0.1-0.19,0.22-0.48,0.35-0.87l0.16-0.44
			l3.23-8.8h0.38l3.5,8.92c0.11,0.28,0.21,0.59,0.3,0.92c0.08,0.33,0.12,0.6,0.11,0.81l1.07-0.06v0.69h-3.59v-0.52
			c0.62-0.01,0.93-0.26,0.93-0.75c0-0.2-0.05-0.44-0.16-0.74l-0.55-1.47l-4.08,0.09c-0.16,0.43-0.34,0.99-0.55,1.68
			c-0.1,0.35-0.24,0.71-0.39,1.08l1.22-0.06v0.69h-2.93V32.26z M21.39,28.71l-1.11-3l-0.71-1.93h-0.03l-0.66,1.77l-0.85,2.38
			l-0.27,0.77H21.39z"/>
	</g>
	<g>
		<path class="st0" d="M5.08,32.36c-0.81-0.44-1.43-1.08-1.88-1.91c-0.45-0.83-0.67-1.8-0.67-2.93c0-1.02,0.21-1.99,0.62-2.9
			S4.17,22.97,5,22.4c0.83-0.57,1.82-0.85,2.98-0.85c0.56,0,1.14,0.08,1.72,0.23c0.58,0.15,1.09,0.36,1.53,0.64l-0.06-0.75h0.86
			v3.59h-0.56c-0.07-0.96-0.42-1.71-1.04-2.26c-0.62-0.54-1.4-0.82-2.33-0.82c-0.74,0-1.42,0.21-2.03,0.64
			c-0.61,0.43-1.1,1.02-1.46,1.78c-0.36,0.76-0.54,1.61-0.54,2.56c0,0.98,0.18,1.86,0.53,2.63c0.36,0.77,0.85,1.38,1.49,1.82
			c0.64,0.44,1.36,0.66,2.18,0.66c0.45,0,0.91-0.06,1.39-0.2c0.48-0.13,0.91-0.33,1.29-0.59v-3.43l-1.1,0.06v-0.69h3.54v0.52
			c-0.5,0-0.82,0.19-0.94,0.57c-0.13,0.38-0.19,0.81-0.19,1.29v2.4h-0.42c-0.44,0-1,0.14-1.69,0.41c-0.31,0.13-0.69,0.22-1.11,0.3
			s-0.82,0.11-1.18,0.11C6.81,33.03,5.88,32.8,5.08,32.36z"/>
	</g>
</g>
<g>
	<path class="st0" d="M15.84,43.16c-0.57-1.35-0.91-2.43-1.02-3.23l-1.33,0.05v-1.05h5.52v0.78l-0.02,0.02
		c-0.52,0.03-0.91,0.15-1.15,0.34c-0.25,0.2-0.37,0.49-0.37,0.87c0,0.36,0.11,0.82,0.33,1.36l0.62,1.52c0.16,0.4,0.4,1,0.73,1.81
		c0.32,0.81,0.63,1.55,0.92,2.21l0.62,1.45c0.62,1.41,1.05,2.46,1.31,3.14h0.05l0.88-2.54l0.31-0.86l2.09-5.87l0.55-1.52
		c0.3-0.86,0.53-1.44,0.69-1.76l-1.83,0.1v-1.05h4.83v0.78c-0.7,0.03-1.23,0.21-1.6,0.55c-0.37,0.33-0.71,0.93-1.01,1.78
		l-5.02,13.77h-0.67L15.84,43.16z"/>
	<path class="st0" d="M32.3,54.79c0.55-0.02,0.95-0.14,1.19-0.38c0.24-0.24,0.37-0.52,0.4-0.84c0.03-0.32,0.05-0.89,0.05-1.7V41.59
		c0-0.67,0.02-1.24,0.07-1.71l-1.71,0.1v-1.05h5.35v0.78c-0.56,0.02-0.95,0.14-1.19,0.38s-0.37,0.52-0.4,0.84
		c-0.03,0.32-0.05,0.89-0.05,1.7v10.11c0,0.84-0.02,1.47-0.07,1.88l1.71-0.09v1.05H32.3V54.79z"/>
	<path class="st0" d="M45.49,55.64c-0.75-0.21-1.42-0.51-1.99-0.9l0.12,1.02h-1.24l-0.14-5.07h0.93c0.08,1.36,0.55,2.41,1.4,3.15
		c0.86,0.74,1.94,1.11,3.26,1.11c0.97,0,1.78-0.27,2.44-0.8c0.66-0.53,0.99-1.26,0.99-2.18c0-0.68-0.19-1.26-0.56-1.75
		c-0.37-0.48-0.83-0.89-1.38-1.21c-0.55-0.32-1.29-0.7-2.22-1.13c-1.06-0.51-1.91-0.95-2.53-1.33c-0.63-0.38-1.16-0.88-1.6-1.51
		c-0.44-0.63-0.67-1.4-0.67-2.32c0-0.63,0.15-1.27,0.44-1.9c0.29-0.63,0.8-1.17,1.52-1.62c0.72-0.44,1.68-0.67,2.87-0.67
		c0.71,0,1.43,0.09,2.15,0.27c0.72,0.18,1.38,0.5,1.99,0.94l-0.1-1.02h1.21v5.23h-0.86c-0.08-1.25-0.48-2.31-1.2-3.17
		c-0.72-0.86-1.73-1.3-3.03-1.3c-0.95,0-1.7,0.27-2.24,0.8c-0.54,0.53-0.81,1.19-0.81,1.99c0,0.63,0.18,1.18,0.55,1.64
		c0.36,0.46,0.81,0.84,1.33,1.14c0.52,0.3,1.26,0.67,2.21,1.12c1.08,0.49,1.95,0.94,2.6,1.33c0.66,0.4,1.22,0.92,1.68,1.56
		c0.46,0.64,0.69,1.43,0.69,2.37c0,0.89-0.22,1.67-0.65,2.35s-1.07,1.21-1.91,1.59c-0.84,0.38-1.84,0.57-3,0.57
		C46.99,55.95,46.24,55.85,45.49,55.64z"/>
	<path class="st0" d="M61.32,55.06c-0.98-0.59-1.67-1.51-2.09-2.73s-0.63-2.85-0.63-4.86v-4.83c0-1.01,0.03-1.93,0.09-2.76
		l-1.71,0.07v-1.02h5.33v0.78c-0.7,0-1.14,0.18-1.33,0.55c-0.19,0.37-0.29,0.81-0.29,1.33v5.99c0,1.38,0.12,2.57,0.37,3.58
		c0.25,1.01,0.73,1.83,1.45,2.47c0.72,0.64,1.76,0.96,3.1,0.96c1.65,0,2.87-0.57,3.67-1.7c0.8-1.13,1.22-2.67,1.25-4.62l0.07-6.68
		c0-0.67,0.02-1.24,0.07-1.71l-1.69,0.1v-1.05h4.42v0.78c-0.57,0.02-0.97,0.14-1.21,0.38c-0.24,0.24-0.37,0.52-0.4,0.84
		c-0.03,0.32-0.05,0.89-0.05,1.7l-0.05,5.52c-0.02,2.3-0.53,4.17-1.53,5.62c-1.01,1.45-2.63,2.18-4.86,2.18
		C63.62,55.95,62.3,55.65,61.32,55.06z"/>
	<path class="st0" d="M73.89,54.79c0.4,0,0.71-0.09,0.95-0.27c0.24-0.18,0.43-0.42,0.58-0.71c0.15-0.29,0.33-0.73,0.53-1.32
		l0.24-0.67l4.9-13.34h0.57L86.97,52c0.17,0.43,0.33,0.89,0.45,1.39c0.13,0.5,0.18,0.91,0.17,1.22l1.62-0.09v1.05h-5.45v-0.79
		c0.93-0.02,1.4-0.4,1.4-1.14c0-0.3-0.08-0.67-0.24-1.12l-0.83-2.24l-6.18,0.14c-0.24,0.65-0.51,1.5-0.83,2.54
		c-0.16,0.52-0.36,1.07-0.59,1.64l1.86-0.09v1.05h-4.45V54.79z M83.76,49.41l-1.69-4.54L81,41.94h-0.05l-1,2.69l-1.28,3.61
		l-0.4,1.17H83.76z"/>
	<path class="st0" d="M92.6,54.79c0.55-0.02,0.95-0.14,1.19-0.38c0.24-0.24,0.37-0.52,0.4-0.84c0.03-0.32,0.05-0.89,0.05-1.7V41.59
		c0-0.67,0.02-1.24,0.07-1.71l-1.71,0.1v-1.05h5.35v0.78c-0.55,0.02-0.95,0.14-1.19,0.38c-0.24,0.24-0.37,0.52-0.4,0.84
		c-0.03,0.32-0.05,0.89-0.05,1.7v10.2c0,0.82-0.02,1.44-0.07,1.85l4.45-0.07c1.01-0.02,1.78-0.34,2.28-0.96
		c0.51-0.63,0.76-1.63,0.76-3.01h0.81l-0.14,4.92H92.6V54.79z"/>
</g>
<g>
	<path class="st0" d="M13.89,64.07l-0.54,4.65c-0.3,2.65-0.52,4.73-0.66,6.26c-0.14,1.53-0.21,2.78-0.21,3.73
		c0,0.52,0.05,0.91,0.15,1.18c0.1,0.27,0.32,0.4,0.66,0.4c0.38,0,0.76-0.24,1.15-0.72c0.39-0.48,0.72-1.2,1-2.18l0.87,0.18
		c-0.1,0.56-0.31,1.16-0.64,1.82s-0.77,1.22-1.31,1.69s-1.19,0.7-1.92,0.7c-0.78,0-1.35-0.24-1.73-0.72s-0.57-1.13-0.57-1.97
		c0-1.07,0.15-2.36,0.45-3.85h-0.09c-0.74,2.49-1.59,4.2-2.55,5.13c-0.97,0.94-1.97,1.4-3.03,1.4c-1.31,0-2.31-0.53-3-1.6
		c-0.69-1.06-1.03-2.42-1.03-4.07c0-1.97,0.33-3.7,0.98-5.19c0.66-1.49,1.64-2.65,2.94-3.48c1.3-0.83,2.89-1.24,4.76-1.24
		c0.64,0,1.19,0.04,1.67,0.12l0.45-3.7c0.1-0.74,0.21-1.34,0.33-1.82l-2.18,0.12l0.12-1.19c1.19,0,2.05-0.07,2.57-0.21
		c0.52-0.14,0.92-0.34,1.22-0.6h0.87C14.29,60.93,14.05,62.64,13.89,64.07z M5.84,68.55C5,69.38,4.4,70.43,4.02,71.7
		c-0.38,1.26-0.57,2.57-0.57,3.92c0,1.47,0.16,2.64,0.49,3.49c0.33,0.86,0.86,1.28,1.6,1.28c0.6,0,1.21-0.35,1.85-1.06
		c0.64-0.71,1.21-1.64,1.73-2.79c0.52-1.15,0.92-2.39,1.22-3.7c0.24-1.09,0.49-2.84,0.75-5.25c-0.54-0.2-1.21-0.3-2.03-0.3
		C7.75,67.29,6.67,67.71,5.84,68.55z"/>
	<path class="st0" d="M27.71,67.06c0.8,0.56,1.19,1.42,1.19,2.6c0,1.47-0.89,2.62-2.66,3.43c-1.77,0.82-3.82,1.35-6.15,1.61
		c0,1.87,0.28,3.27,0.84,4.21c0.56,0.93,1.41,1.4,2.57,1.4c0.91,0,1.8-0.3,2.66-0.91c0.85-0.61,1.6-1.51,2.24-2.7l0.98,0.57
		c-0.84,1.57-1.77,2.72-2.8,3.45c-1.03,0.73-2.23,1.09-3.58,1.09c-1.83,0-3.21-0.57-4.13-1.72c-0.92-1.14-1.39-2.72-1.39-4.73
		c0-1.61,0.27-3.11,0.82-4.49c0.55-1.38,1.37-2.5,2.46-3.36c1.09-0.85,2.42-1.28,3.97-1.28C25.92,66.22,26.91,66.5,27.71,67.06z
		 M21.35,69.08c-0.7,1.23-1.1,2.75-1.22,4.54c1.73-0.24,3.21-0.72,4.45-1.43c1.23-0.72,1.85-1.61,1.85-2.69
		c0-0.66-0.18-1.2-0.55-1.63c-0.37-0.43-0.89-0.64-1.57-0.64C23.03,67.23,22.05,67.85,21.35,69.08z"/>
	<path class="st0" d="M36.6,61.06c-0.24,1.39-0.39,2.38-0.45,2.95c-0.32,2.33-0.62,5.03-0.91,8.1c-0.29,3.07-0.43,5.29-0.43,6.64
		c0,0.5,0.05,0.88,0.15,1.15c0.1,0.27,0.32,0.4,0.66,0.4c0.38,0,0.77-0.23,1.16-0.7c0.4-0.47,0.74-1.2,1.01-2.19l0.84,0.21
		c-0.1,0.56-0.31,1.16-0.63,1.8c-0.32,0.65-0.75,1.2-1.3,1.67c-0.55,0.47-1.19,0.7-1.92,0.7c-0.83,0-1.44-0.22-1.82-0.66
		s-0.57-1.1-0.57-2c0-1.31,0.17-3.73,0.52-7.25c0.35-3.52,0.71-6.67,1.09-9.46l0.27-1.61l-2.12,0.12l0.15-1.19
		c1.17,0,2.02-0.07,2.54-0.21c0.52-0.14,0.93-0.34,1.25-0.6h0.84L36.6,61.06z"/>
	<path class="st0" d="M44.82,67.06c0.43,0.56,0.64,1.31,0.64,2.27c0,0.78-0.17,2.14-0.51,4.09c-0.2,1.25-0.35,2.3-0.46,3.15
		c-0.11,0.85-0.16,1.68-0.16,2.49c0,0.84,0.31,1.25,0.92,1.25c0.38,0,0.77-0.24,1.16-0.72s0.74-1.2,1.01-2.18l0.84,0.18
		c-0.24,1.07-0.67,2.04-1.28,2.91c-0.62,0.87-1.42,1.3-2.42,1.3c-1.79,0-2.69-0.93-2.69-2.8c0-0.78,0.05-1.53,0.15-2.27
		c0.1-0.74,0.25-1.65,0.45-2.74c0.2-1.21,0.34-2.15,0.43-2.82c0.09-0.67,0.13-1.37,0.13-2.1c0-0.34-0.06-0.65-0.19-0.92
		c-0.13-0.28-0.34-0.42-0.64-0.42c-0.38,0-0.77,0.24-1.16,0.72c-0.4,0.48-0.74,1.2-1.01,2.18l-0.84-0.18
		c0.18-0.97,0.59-1.92,1.22-2.83c0.64-0.92,1.48-1.37,2.54-1.37C43.77,66.22,44.39,66.5,44.82,67.06z M45.79,60.25
		c0.3,0.32,0.45,0.73,0.45,1.22s-0.16,0.9-0.48,1.21c-0.32,0.31-0.7,0.46-1.13,0.46s-0.81-0.15-1.12-0.46
		c-0.31-0.31-0.46-0.71-0.46-1.21s0.16-0.91,0.48-1.22c0.32-0.32,0.7-0.48,1.13-0.48C45.11,59.78,45.49,59.94,45.79,60.25z"/>
	<path class="st0" d="M60.57,66.35c0.69,0.09,1.26,0.21,1.72,0.37c-0.1,1.63-0.36,4.89-0.78,9.79l-0.39,4.53
		c-0.24,2.82-1.01,4.95-2.33,6.37c-1.31,1.42-3.08,2.13-5.31,2.13c-0.58,0-1.2-0.08-1.88-0.24c-0.68-0.16-1.26-0.43-1.76-0.81
		c-0.5-0.38-0.76-0.87-0.78-1.46c0-0.42,0.13-0.78,0.4-1.07c0.27-0.3,0.6-0.45,1-0.45c0.38,0,0.7,0.12,0.95,0.36
		c0.26,0.24,0.39,0.58,0.39,1.01c0,0.26-0.06,0.52-0.18,0.78c0.18,0.28,0.47,0.49,0.87,0.63c0.4,0.14,0.8,0.21,1.19,0.21
		c1.41,0,2.49-0.48,3.24-1.45s1.25-2.12,1.51-3.48c0.26-1.35,0.48-3.1,0.66-5.25c0.12-1.47,0.23-2.55,0.33-3.22h-0.09
		c-0.76,2.61-1.59,4.37-2.51,5.29c-0.92,0.93-1.92,1.39-3.01,1.39c-1.33,0-2.34-0.53-3.01-1.58c-0.68-1.05-1.01-2.46-1.01-4.21
		c0-1.77,0.32-3.4,0.95-4.88c0.64-1.48,1.61-2.67,2.92-3.57c1.31-0.89,2.92-1.34,4.83-1.34C59.19,66.22,59.88,66.26,60.57,66.35z
		 M54.69,68.58c-0.87,0.86-1.48,1.9-1.85,3.15c-0.37,1.24-0.55,2.5-0.55,3.77c0,1.49,0.17,2.68,0.51,3.57
		c0.34,0.88,0.88,1.33,1.64,1.33c0.88,0,1.73-0.68,2.55-2.04c0.83-1.36,1.51-3.04,2.04-5.04s0.85-3.87,0.96-5.62
		c-0.52-0.26-1.17-0.39-1.97-0.39C56.67,67.29,55.56,67.72,54.69,68.58z"/>
	<path class="st0" d="M70.1,60.43c-0.32,1.91-0.51,3.1-0.57,3.58c-0.14,1.01-0.3,2.48-0.49,4.4c-0.19,1.92-0.32,3.41-0.4,4.46h0.09
		c0.93-2.53,1.87-4.27,2.82-5.22c0.94-0.96,1.96-1.43,3.06-1.43c1.11,0,1.94,0.36,2.48,1.09c0.54,0.73,0.81,1.66,0.81,2.79
		c0,1.33-0.17,3.24-0.51,5.73c-0.22,1.57-0.33,2.61-0.33,3.1c0,0.44,0.05,0.78,0.16,1.01c0.11,0.24,0.32,0.36,0.64,0.36
		c0.38,0,0.77-0.23,1.16-0.7c0.4-0.47,0.74-1.2,1.01-2.19l0.75,0.21c-0.18,0.96-0.59,1.89-1.24,2.8s-1.5,1.37-2.55,1.37
		c-0.89,0-1.52-0.23-1.88-0.7c-0.36-0.47-0.54-1.19-0.54-2.16c0-0.76,0.13-2.08,0.39-3.97c0.04-0.26,0.13-1,0.27-2.22
		c0.14-1.22,0.21-2.32,0.21-3.3c0-0.46-0.11-0.88-0.33-1.25s-0.59-0.57-1.1-0.57c-0.86,0-1.73,0.64-2.62,1.91
		c-0.9,1.27-1.63,2.87-2.21,4.79c-0.58,1.92-0.87,3.77-0.87,5.56c0,0.38,0.02,0.91,0.06,1.58h-2.45c-0.02-0.18-0.03-0.44-0.03-0.78
		c0-1.47,0.17-4.34,0.51-8.61c0.34-4.27,0.67-7.49,0.98-9.68c0.04-0.24,0.13-0.77,0.27-1.58l-2.09,0.12l0.12-1.19
		c1.19,0,2.05-0.07,2.57-0.21c0.52-0.14,0.92-0.34,1.22-0.6h0.87L70.1,60.43z"/>
	<path class="st0" d="M87.11,66.55h4.74l-0.09,1.13l-4.77,0.06l-0.21,1.91c-0.44,3.78-0.66,6.45-0.66,8.03
		c0,0.78,0.09,1.4,0.27,1.88c0.18,0.48,0.56,0.72,1.13,0.72c1.03,0,1.97-0.7,2.8-2.09l0.78,0.51c-0.62,1.05-1.26,1.83-1.92,2.34
		c-0.67,0.51-1.46,0.76-2.37,0.76c-1.09,0-1.88-0.33-2.37-0.98s-0.73-1.5-0.73-2.54c0-1.15,0.07-2.67,0.21-4.55
		c0.14-1.88,0.33-3.86,0.57-5.95l-2.66,0.03l0.09-1.25c1.19,0,2.16-0.35,2.89-1.06s1.3-1.75,1.7-3.15h1.13L87.11,66.55z"/>
	<path class="st0" d="M101.89,67.04c0.88,0.55,1.33,1.25,1.33,2.1c0,0.42-0.12,0.75-0.36,1s-0.54,0.37-0.9,0.37
		c-0.34,0-0.62-0.12-0.85-0.36c-0.23-0.24-0.34-0.52-0.34-0.83c0-0.34,0.09-0.65,0.27-0.92c-0.12-0.36-0.38-0.65-0.78-0.87
		c-0.4-0.22-0.92-0.33-1.55-0.33c-0.7,0-1.33,0.22-1.89,0.67c-0.57,0.45-0.85,1.01-0.85,1.69c0,0.58,0.26,1.09,0.78,1.55
		c0.52,0.46,1.31,0.99,2.39,1.61c0.9,0.52,1.62,0.98,2.18,1.39c0.56,0.41,1.03,0.89,1.42,1.45c0.39,0.56,0.58,1.18,0.58,1.88
		c0,0.83-0.23,1.58-0.7,2.24c-0.47,0.66-1.13,1.17-1.98,1.55c-0.86,0.38-1.83,0.57-2.92,0.57c-1.29,0-2.41-0.29-3.36-0.87
		c-0.95-0.58-1.42-1.35-1.42-2.33c0-0.42,0.12-0.77,0.37-1.04c0.25-0.28,0.55-0.42,0.91-0.42c0.38,0,0.68,0.12,0.9,0.37
		c0.22,0.25,0.33,0.54,0.33,0.88c0,0.34-0.09,0.65-0.27,0.92c0.14,0.42,0.45,0.75,0.92,1s0.99,0.37,1.55,0.37
		c1.05,0,1.85-0.24,2.4-0.73s0.82-1.19,0.82-2.1c0-0.66-0.28-1.23-0.83-1.73c-0.56-0.5-1.4-1.07-2.54-1.73
		c-1.27-0.74-2.23-1.4-2.88-2c-0.65-0.6-0.97-1.31-0.97-2.15c0-0.72,0.22-1.38,0.66-2s1.05-1.11,1.83-1.48
		c0.79-0.37,1.67-0.55,2.67-0.55C99.98,66.22,101.01,66.49,101.89,67.04z"/>
</g>
<g>
	<path class="st0" d="M4.79,47.6c0.39,0.23,0.69,0.56,0.9,1c0.22,0.44,0.33,0.96,0.33,1.56c0,0.73-0.13,1.39-0.39,2.01
		s-0.64,1.1-1.13,1.47C4.01,54,3.43,54.19,2.77,54.19c-0.84,0-1.48-0.28-1.91-0.83c-0.43-0.55-0.64-1.27-0.64-2.14
		c0-0.73,0.13-1.39,0.4-1.99c0.27-0.6,0.65-1.08,1.14-1.43c0.5-0.35,1.08-0.53,1.74-0.53C3.98,47.25,4.41,47.37,4.79,47.6z
		 M2.27,48.16c-0.29,0.28-0.51,0.66-0.66,1.14c-0.15,0.48-0.23,1.02-0.23,1.61c0,0.74,0.12,1.38,0.36,1.93
		c0.24,0.55,0.63,0.83,1.17,0.83c0.45,0,0.82-0.17,1.11-0.52c0.29-0.34,0.5-0.77,0.63-1.28c0.13-0.5,0.2-1,0.2-1.47
		c0-0.74-0.12-1.38-0.35-1.89C4.27,48,3.86,47.74,3.29,47.74C2.9,47.74,2.56,47.88,2.27,48.16z"/>
	<path class="st0" d="M11.59,44.12c0.17,0.12,0.25,0.29,0.25,0.51c0,0.12-0.04,0.24-0.13,0.36c-0.08,0.12-0.21,0.17-0.38,0.17
		c-0.18,0-0.32-0.06-0.42-0.19c-0.1-0.12-0.15-0.28-0.14-0.48c-0.05-0.04-0.15-0.05-0.31-0.05c-0.42,0-0.71,0.25-0.9,0.74
		s-0.31,1.23-0.39,2.21h1.89l-0.04,0.52l-1.89,0.03l-0.04,0.74c-0.06,1.04-0.11,1.78-0.15,2.22l-0.08,0.94
		c-0.11,1.3-0.23,2.33-0.37,3.09s-0.41,1.4-0.8,1.92C7.32,57.38,6.75,57.64,6,57.64c-0.34,0-0.59-0.06-0.77-0.17
		s-0.27-0.29-0.27-0.52c0-0.12,0.04-0.25,0.13-0.37c0.09-0.12,0.22-0.18,0.39-0.18c0.17,0,0.3,0.06,0.4,0.17
		c0.1,0.11,0.15,0.26,0.15,0.45c0.1,0.07,0.23,0.11,0.39,0.11c0.32,0,0.56-0.17,0.73-0.53c0.17-0.35,0.29-0.8,0.36-1.36
		c0.07-0.56,0.15-1.39,0.23-2.48c0.05-0.89,0.1-1.54,0.15-1.97l0.08-0.96c0.04-0.66,0.1-1.29,0.16-1.87l-1.17,0.01l0.07-0.57h1.17
		c0.16-1.1,0.44-1.95,0.84-2.55c0.4-0.6,1.02-0.9,1.86-0.9C11.18,43.95,11.42,44.01,11.59,44.12z"/>
</g>
</svg>
