<svg id="Layer_1" data-name="Layer 1" xmlns="http://www.w3.org/2000/svg" viewBox="0 0 340.16 226.77" width="340.1575px" height="226.7717px"><defs><style>.cls-1{fill:#cbe2e7;}.cls-2{fill:#dbebef;}</style></defs><path class="cls-1" d="M56.74,29.8A27.52,27.52,0,0,0,31.45,68.15c3.14-5.66,6.78-12.6,8.21-15.35,2.37-4.53,4.28-7.58,8.11-9.74,3-1.71,6.24-3.19,10.84-2.46a38.59,38.59,0,0,1,4.62.88,19.76,19.76,0,0,1,6.74,0c2.11.44-.08,1.91-1.4,2.73a26.1,26.1,0,0,0-3,2c-4.71,4.25-6.53,9.44-7.79,13.06s.67,16,1.26,19.87a25,25,0,0,1,.4,5.56,27.51,27.51,0,0,0-2.7-54.89"/><path class="cls-1" d="M190.5,54.05H150.85a4.27,4.27,0,0,1-4.23-5c2.09-11.69,11.4-21.1,24-21.1s22,9.41,24.06,21.1a4.27,4.27,0,0,1-4.23,5m-19.83-29h0a29,29,0,0,0-29,29V76.38A6.66,6.66,0,0,0,148.35,83H193a6.66,6.66,0,0,0,6.66-6.66V54.05a29,29,0,0,0-29-29"/><path class="cls-1" d="M306.38,72.81a2.23,2.23,0,0,1-1.82-2.36,2.14,2.14,0,0,1,4.1,1.13c-.14,1.27-1.46,1.37-2.28,1.23m6,8.92a13.58,13.58,0,0,0-.72-4.58,27.93,27.93,0,0,0,.12-3.23A10.69,10.69,0,0,0,309,66.79c-1.86-2.38-4.13-3.37-7.46-4.52-2.76-.94-11.31-3.91-15.34-5.6-12.69-5.31-15.82-10.09-16.08-18.45a60.27,60.27,0,0,1,2.17-16.9s.36-1.05-.72-.44-5.78,3-5.78,3-3.76,7.91-4,8.82-.83,2.07-4.38,9.84a20.72,20.72,0,0,0-1.94,8.9c.13,2.33.28,6.4,1.94,9.92a50.59,50.59,0,0,0,6,9.21l.62,8.53.27,7.33.16.38,2-.2.49-.51a8,8,0,0,1-.66-3.37c0-2.09-1-10.77-1-10.77a12.34,12.34,0,0,0,1.87,1.68l2.51,1.52s.9,4.49,1,5.49,1.27,5.62,1.27,5.62l.91.46,1.05-.1.29-.47s-1-3.54-1.34-5.35-1-3.48-1.18-4.62a17,17,0,0,0,5.74,2.39,13.42,13.42,0,0,0,8.28-.4c2.56-.8,10.8-3.39,13.39-2.91a20.21,20.21,0,0,1,9.68,4,17,17,0,0,1,1.69,1.83c.7.82,1.92,2.15,2,.67"/><path class="cls-2" d="M56.74,143.18a27.52,27.52,0,0,0-25.29,38.35c3.14-5.66,6.78-12.59,8.21-15.34,2.37-4.54,4.28-7.58,8.11-9.74,3-1.71,6.24-3.19,10.84-2.46a35.69,35.69,0,0,1,4.62.88,19.27,19.27,0,0,1,6.74,0c2.11.44-.08,1.9-1.4,2.73a26.1,26.1,0,0,0-3,2c-4.71,4.25-6.53,9.44-7.79,13.06s.67,16,1.26,19.87a24.93,24.93,0,0,1,.4,5.55,27.51,27.51,0,0,0-2.7-54.89"/><path class="cls-2" d="M190.5,167.44H150.85a4.28,4.28,0,0,1-4.23-5c2.09-11.69,11.4-21.1,24-21.1s22,9.41,24.06,21.1a4.28,4.28,0,0,1-4.23,5m-19.83-29h0a29,29,0,0,0-29,29v22.32a6.66,6.66,0,0,0,6.66,6.66H193a6.66,6.66,0,0,0,6.66-6.66V167.44a29,29,0,0,0-29-29"/><path class="cls-2" d="M306.38,186.2a2.23,2.23,0,0,1-1.82-2.36,2.14,2.14,0,0,1,4.1,1.12c-.14,1.27-1.46,1.37-2.28,1.24m6,8.92a13.64,13.64,0,0,0-.72-4.59,27.93,27.93,0,0,0,.12-3.23,10.71,10.71,0,0,0-2.79-7.13c-1.86-2.38-4.13-3.36-7.46-4.51-2.76-.95-11.31-3.91-15.34-5.6-12.69-5.31-15.82-10.09-16.08-18.46a60.34,60.34,0,0,1,2.17-16.9s.36-1-.72-.44-5.78,3-5.78,3-3.76,7.9-4,8.82-.83,2.07-4.38,9.83a20.79,20.79,0,0,0-1.94,8.91c.13,2.33.28,6.39,1.94,9.92a50.45,50.45,0,0,0,6,9.2l.62,8.54.27,7.32.16.38,2-.2.49-.5a8,8,0,0,1-.66-3.37c0-2.09-1-10.77-1-10.77a12.46,12.46,0,0,0,1.87,1.67l2.51,1.52s.9,4.5,1,5.5,1.27,5.62,1.27,5.62l.91.46,1.05-.1.29-.48s-1-3.53-1.34-5.35-1-3.48-1.18-4.61a17.22,17.22,0,0,0,5.74,2.39,13.34,13.34,0,0,0,8.28-.41c2.56-.8,10.8-3.39,13.39-2.9a20.08,20.08,0,0,1,9.68,4,17,17,0,0,1,1.69,1.84c.7.81,1.92,2.15,2,.67"/></svg>