<svg xmlns="http://www.w3.org/2000/svg" viewBox="0 0 791.96 301.49"><defs><style>.cls-1{fill:#fff;}</style></defs><title>Artboard 1</title><g id="Layer_2_copy" data-name="Layer 2 copy"><path class="cls-1" d="M142.62,158.85s15.13.06,16.7,0,6.66-.59,6.66-.59l-.33,3.76s-1,14.88-1,23.4.87,49.66,2.53,56.59,1.19,4.28,1.19,4.28l-26.6-.24,1.28-6.67s-4.78,2.89-7.86,4.36-3.59,3.16-10.68,2.72-13-.44-17.18-2.55a29.44,29.44,0,0,1-11.09-8.45c-4.43-5.09-10-11.31-11.8-18.26s-2.59-32.07,4.47-43.11,20-17.22,20-17.22,10.08-1.84,16.7,0a153.49,153.49,0,0,1,16,6Zm-27.81,26.52c-2,1.82-3.94,7.38-5,8.75s-.43,4.33-.09,5.2,4.11,12.38,5.79,15.53,3.93,3.53,3.93,3.53,14.24-1.65,16.15-2,1.94-1.7,1.94-1.7-1.76-28.46-2.09-29.33a3.54,3.54,0,0,0-3.26-2c-1.73,0-14.05.62-14.05.62A8.54,8.54,0,0,0,114.81,185.37Z"/><path class="cls-1" d="M185.39,149.92l16.19-1.22,1.56,6.24a56.9,56.9,0,0,1,8.54-2.35l18.55-2.72s7.34,1.25,23.45,12.41c1,.72,2.93,4.22,3.57,5.9s6.91,14.79,7.09,23.29a169.35,169.35,0,0,1-1.23,23c-.56,3.49-.47,7.66-7,11s-30.94,11.8-41.87,11.61l-2.5-.05s2.17,18.54,2.44,22.05.71,17,1,28.35l-23.09,4.94s-1.19,1.48-1.46-2-1.9-82.38-1.9-82.38l-2-41.2Zm28.49,65.38,18.33-9c2.91-4.29,2.7-11.46.3-17.33s-17.85-18.15-17.85-18.15a8.38,8.38,0,0,0-2.69,1.12Z"/><path class="cls-1" d="M302.26,197.26c-.34,1.43-.12,15.15.64,17.56s4.65,7.49,7.8,11.51c2,2.59,16,.31,16,.31,2.58-1.08,12.6-6.38,14.21-7.47s5.45.09,5.45.09,18.6,7.53,19.55,8,1.9,1.15,1.9,1.15-13.34,12.68-17.55,14.75c-8.09,4-19.48,6.38-32.11,5.36s-29.67-15.09-30.62-16-16.37-16.21-9.74-38.35,16.86-29.79,19.78-32.3,20-7.49,22.23-7.61,17.42,1.58,20.13,1.95a18.18,18.18,0,0,1,8.58,4c2.52,2.12,11.5,10.59,12.27,12.21a80.86,80.86,0,0,1,3,9c.75,2.73,1.53,17.08,1.53,17.08L321.06,197l-18.64-1.91A5.07,5.07,0,0,1,302.26,197.26Zm9.65-12.43,20.2-.37,10.92-.27s-6.75-5.38-8.35-7.09-8.6-3-10.45-2.75-8.62,5.06-10.44,7.11S311.91,184.83,311.91,184.83Z"/><path class="cls-1" d="M379.72,149.12l15.5-1.5s4.67-.33,5.84,0a1.6,1.6,0,0,1,1.16,1.5s.17,4,1.17,5.33c0,0,5.33-6.81,8.83-8.5s2.83-1.5,5.16-2.16,14.5-3.72,16.84-3.55c0,0,3.66-.12,5.33,1.38s12.83,8,12.83,8l-6.33,26.5-1,1s-6-9.17-9.67-11.83a20.8,20.8,0,0,0-6.5.5c-3.33.83-7.16,1.33-8.5,2a45.75,45.75,0,0,0-7.1,6.33s-5.81,6.33-6.06,11.67l2.72,51.66.05,12.34s-.6.5-2.6,0-23.17-8.35-23.17-8.35-1-16.48-1-18.32-2.5-43.5-2.5-43.5-.83-22.77-1-23.22a51.5,51.5,0,0,1-1-5.78C378.72,149.79,379.72,149.12,379.72,149.12Z"/><path class="cls-1" d="M691.07,136.57c4.72,2.15,10.86,7,12.61,8.38s2.13,1.5,2.13,2a5.4,5.4,0,0,1-1.63,2.67c-.87.79-10.25,8.83-12.37,11s-2.75,1.87-2.75,1.87-1.88-2.37-8.25-4.62-9.5-.38-12.38,0-8.5,3.87-10.75,6-10.75,11.25-10.75,11.25c.63,2.12,1.5,24.25,1.63,25.75s1.12,31.87,1.12,32.75a8.62,8.62,0,0,1-.75,2.5s-21.62,8-22.35,8.62-.65-1.37-.58-2-.07-23.62,0-26.37.69-38.5.57-42.38-1.08-28.45-1.1-29.33c0-.67,1.1-.57,1.1-.57s14.63-1.76,16.12-1.89,4.19-.53,4.85-.56c.49,0,0,1.55,0,1.55a19.3,19.3,0,0,0-.14,3.55c.13,1.75,1.13,6.5,1.13,6.5a86,86,0,0,1,7-11.34c.62-.5,3.75-2.16,12.12-5,0,0,10.5-3.22,13.87-3.22C683.18,133.61,691.07,136.57,691.07,136.57Z"/><path class="cls-1" d="M10.33,75.27s22.81.59,28,.5,17.86.77,20.3,1.45,12.71,3.2,20.6,7.75a199.47,199.47,0,0,1,21.41,15.14c1.06,1.06,4.17,10.38,4.2,12.18s-1.14,23.82-2.15,25.64S86.76,158.22,77,164.33s-39.33,11.32-39.33,11.32L48.2,253.36a20.71,20.71,0,0,1-4.17-.65c-1.57-.51-31.57-10.63-31.57-10.63l-1.35-77.45Zm28.35,70.12S67.09,134.32,68,126.15s-1.43-12.45-3-14-10.67-5.7-12.77-6.53-14.28-4.26-14.28-4.26Z"/><path class="cls-1" d="M466.55,77s6.17-.16,7.5,0,14.34,2.17,16.5,2.34S512,85.45,523.72,91a92.35,92.35,0,0,1,8.67,4.67c.66.5,16.69,11.13,17.16,34.67A21.41,21.41,0,0,1,545.22,144s-10.17,11.84-20.17,17c0,0,8.17,3.51,12.17,6.84s15.33,12.41,19.33,20.33c2.49,4.91,2.5,12.34,2.5,13.17s-4,19.33-10.5,25.16-17,8.67-18.16,9-9.5,2.51-13.34,3.17-24.33,0-24.33,0l-27.17,2s-.66-29.22-.66-32.88.66-46.91.66-48.46.67-49.88.67-55.88S466.55,77,466.55,77Zm21.84,22.34s1.5,25.33,1.66,27.66,1.17,15,1.17,15,9.17-3,14.17-6.33,9.83-8.17,10.33-10.5-.33-9-.83-11.33-4.12-5.41-5.12-6.75-6.88-4.85-6.88-4.85c-2.17-.83-14.5-4.12-14.5-4.12Zm1.5,94.33c0,1.33,1,22.17,1,22.17,2.66.17,21.5-1.17,25-2s8.35-8.34,8.18-9.84-5.66-15.33-7.16-17.83a14.76,14.76,0,0,0-4.89-4.33s-20.45-6.17-21.11-6.17-1,1.5-1,1.5Z"/><path class="cls-1" d="M604.53,150.29s4.83,71.16,4.83,72.66,1.83,17.72,1.83,17.72-31.74-7.56-33.42-8.2c-.85-.31-.58-3.52-.58-3.52s1.17-18.5,1.5-21.66S581.36,161,581.36,161V148l-.33-.83V131.29l-.5-18.5a109.38,109.38,0,0,1-21.33-10.34c-7-4.66-11.84-12-14.67-16.16S539,75,538.15,67.67c-2.12-18.32-2.42-21.17-2.89-23.08s-2.4-20.8-2.4-20.8,6-9.67,7.33-12,1.84,0,1.84,0,4.65,17.91,14.87,33.66c9.83,15.17,21,20.5,50.35,16.13,9.33-1.38,28.45-5.46,34.61-6.79,7.44-1.61,12.73-2.32,18.84,0,4.83,1.83,9.57,4.1,13.12,10.05A58.36,58.36,0,0,1,677.2,71a29.5,29.5,0,0,1,6.45,7.67c1.5,2.83-2.25,1.73-4.45,1a39.32,39.32,0,0,0-5.17-1.5c-9.33-1.34-17,1.5-22.33,3.5S634,97.62,630.19,102s-7,7.5-14.83,10a37,37,0,0,1-13.28,2c.33,2,1.78,18,1.95,22s1.16,13.34,1.16,13.34Zm-19-11a17.11,17.11,0,0,0,1.16,7.33l11.34,3s.16-12.17,0-14.33-.84-21-.84-21h-6.33a27.32,27.32,0,0,1-5.33-1S585.69,134.79,585.53,139.29Zm71-72.74c1,2.6,4.33,3,6,2.34s4-2.34,2.83-4.84a4.62,4.62,0,0,0-8.83,2.5Z"/><path class="cls-1" d="M758.12,96.79a1.79,1.79,0,0,1,1.67-1.34c1.33,0,20.33-5.83,20.33-5.83a3.77,3.77,0,0,0,0,1.67c.17,1.33.67,48.5.67,56.66s1.17,43.67,1.33,49,.84,43.67.84,45.84v3.5a22.92,22.92,0,0,1-3.5,0c-1.5-.17-14.67-.36-15.67.07s-1-2.24-1-3.24-.5-6-.5-7.18-.17-8-.17-8c0,.63-3,6.32-4.2,7.77-2.48,3.1-1.67,2.53-5.67,5.81s-17.46,3.93-24.63,1.59-22.16-11.17-23.83-13.5c-6.8-9.52-9.92-23.14-10.17-28.5-.5-10.83,1.44-19.82,1.44-21s2.73-6.69,3.06-7.69,13.17-16,15.34-17,8.33-3.16,11-3.16,25.66,1.5,29.66,2,4.67,2.5,4.67,2.5-.33-15.34-.33-16.84-.84-35.16-.84-36.83S758.12,96.79,758.12,96.79Zm-24.5,79.83c-2.83-.5-12.5.17-16.5,9.17s-.5,24.5,1,26.83,9.3,7.76,10.34,8.17c3.89,1.54,13,1.54,11,1.54-.91,0,7-.37,9.66-3,.67-.67,0-11.5,0-14.17V181.29S736.46,177.12,733.62,176.62Z"/></g></svg>